<svg width="256" height="181" viewBox="0 0 256 181" fill="none" xmlns="http://www.w3.org/2000/svg">
<path d="M111.905 146.295C154.724 147.472 200.565 145.622 243.3 142.175C246.238 141.923 249.345 141.586 251.528 139.568C253.543 137.634 254.13 134.776 254.466 132.001C256.565 113.923 253.878 94.0794 254.466 75.6652C254.886 56.158 255.474 36.5667 255.893 17.0595C255.977 13.1076 255.977 8.81933 253.711 5.5401C250.184 0.495122 242.964 0.074707 236.835 0.074707C164.631 0.999619 92.4264 1.92453 20.2221 2.84944C15.9402 2.93353 11.2385 3.10169 7.8802 5.70826C5.44541 7.55809 4.01812 10.501 3.01062 13.3598C0.575826 20.5909 0.575815 28.4106 0.743732 36.0622C1.16352 57.167 2.255 78.2718 3.93417 99.2925C4.77375 109.803 5.78123 120.313 6.95665 130.824C8.04811 140.325 14.345 142.511 23.4125 143.184C35.7544 144.109 48.1803 144.109 60.5222 143.268C61.1938 150.919 59.4307 160.253 54.9809 166.559C50.5311 172.781 43.8144 177.406 36.4261 179.339C69.1699 184.3 97.7158 168.156 111.905 146.295Z" fill="black"/>
</svg>
