<svg width="262" height="185" viewBox="0 0 262 185" fill="none" xmlns="http://www.w3.org/2000/svg">
<path d="M0.805206 26.0382C1.14105 20.5728 2.14853 14.8552 4.91916 10.0624C7.6898 5.26971 12.7273 3.41988 18.0167 2.99947C23.8938 2.49497 29.9388 2.74722 35.8999 2.66314C42.1967 2.57906 48.4936 2.49497 54.7905 2.41089C67.4682 2.24272 80.062 2.07456 92.7397 1.90639C117.927 1.57006 143.199 1.23373 168.386 0.981481C180.98 0.813315 193.49 0.645149 206.084 0.476983C212.464 0.3929 218.845 0.308817 225.226 0.224734C231.103 0.140651 237.064 -0.111597 242.941 0.0565685C247.727 0.224734 253.016 1.14965 256.795 4.26071C261.16 7.70811 262.084 12.8372 262 18.0503C261.832 30.4946 261.412 43.0229 261.076 55.4672C260.741 67.8274 260.069 80.1876 260.489 92.4637C260.825 104.403 261.664 116.343 260.992 128.367C260.741 133.244 260.825 139.802 256.795 143.25C254.78 145.016 252.093 145.688 249.574 146.024C246.803 146.361 243.949 146.529 241.178 146.697C229.256 147.622 217.334 148.379 205.496 148.967C181.148 150.229 156.8 150.817 132.452 150.649C127.331 150.565 122.293 150.481 117.172 150.397C104.662 169.063 83.6722 181.171 61.4232 183.778C54.2028 184.619 46.8984 184.45 39.7619 183.357C38.5865 183.189 37.1592 182.769 36.5715 181.592C36.0678 180.667 36.6555 179.658 37.663 179.405C44.8834 177.556 51.3482 173.099 55.5461 166.877C59.2403 161.412 60.6676 154.265 60.5836 147.622C49.4171 148.211 38.1667 148.127 27.0003 147.286C22.8863 146.949 18.5204 146.445 14.8263 144.511C11.2161 142.661 8.78127 139.718 7.60585 135.85C6.85022 133.412 6.76628 130.805 6.5144 128.283C6.17857 125.172 5.84271 122.145 5.59085 119.034C5.00314 112.896 4.49939 106.674 3.99564 100.536C2.98816 88.0914 2.23251 75.563 1.72876 63.1188C1.47687 56.8125 1.22501 50.4222 1.0571 44.116C0.637299 38.1461 0.385406 32.0081 0.805206 26.0382ZM6.93419 43.8638C7.5219 67.9956 8.94917 92.0433 11.216 116.091C11.8038 121.977 12.2236 127.947 13.0632 133.832C13.315 135.598 13.8188 137.28 14.7423 138.793C15.0782 139.298 15.414 139.718 16.0017 140.307C16.0017 140.307 16.0857 140.391 16.1696 140.475C16.2536 140.559 16.3375 140.643 16.4215 140.727C16.7573 140.98 17.0092 141.148 17.345 141.316C17.429 141.316 18.0167 141.652 18.1007 141.652C18.2686 141.736 18.8563 141.989 18.9402 141.989C19.6959 142.241 20.5354 142.409 21.2911 142.577C21.9627 142.745 22.4665 142.829 23.6419 142.913C24.7334 143.082 25.9088 143.166 27.0003 143.166C33.0453 143.586 39.0063 143.754 45.0513 143.838C50.8445 143.838 56.5536 143.586 62.3467 143.25C63.6901 143.166 66.3768 143.838 66.5447 145.604C67.2163 153.676 65.7051 162.589 61.0874 169.484C58.0649 173.94 53.8669 177.64 49.1653 180.162C57.4772 180.33 65.7051 179.153 73.6811 176.547C83.8401 173.183 93.3274 167.634 101.052 160.319C105.166 156.451 108.86 152.078 111.966 147.37C112.05 147.202 112.134 147.118 112.218 147.033C112.806 146.361 113.813 146.193 114.905 146.361C137.993 146.949 161.082 146.697 184.17 145.856C195.925 145.436 207.595 144.847 219.265 144.091C225.058 143.754 230.767 143.334 236.561 142.913C239.331 142.745 242.102 142.493 244.872 142.241C247.055 142.073 249.406 141.989 251.253 140.643C253.1 139.298 253.772 136.859 254.108 134.673C254.528 131.983 254.696 129.292 254.863 126.601C255.199 120.884 255.115 115.166 254.947 109.448C254.612 97.9291 253.94 86.4938 254.276 74.9744C254.696 62.6983 255.031 50.4222 255.367 38.1461C255.535 32.0081 255.703 25.87 255.787 19.8161C255.871 15.5278 256.291 9.81019 252.848 6.7832C252.093 6.11054 251.589 5.85829 250.75 5.52196C249.91 5.18563 249.154 4.93338 247.979 4.68113C246.468 4.3448 243.949 4.17663 241.934 4.17663C236.393 4.09255 230.348 4.3448 224.638 4.3448C212.464 4.51296 200.29 4.68113 188.2 4.84929C163.769 5.18563 139.421 5.43788 115.073 5.77421C90.6407 6.11054 66.1249 6.36279 41.693 6.69912C35.648 6.7832 29.603 6.7832 23.558 6.95137C18.8563 7.03545 14.1546 7.45586 11.216 11.5759C8.27751 15.7801 7.35396 21.5818 7.01813 26.6268C6.51437 32.3444 6.76628 38.1461 6.93419 43.8638Z" fill="white"/>
</svg>
