<svg width="205" height="126" viewBox="0 0 205 126" fill="none" xmlns="http://www.w3.org/2000/svg">
<path d="M38.0154 53.2594C29.5675 53.2594 22.6841 60.1721 22.6841 68.6559C22.6841 77.1396 29.5675 84.0524 38.0154 84.0524C46.4632 84.0524 53.3467 77.1396 53.3467 68.6559C53.3467 60.015 46.4632 53.2594 38.0154 53.2594ZM38.0154 81.5387C30.8191 81.5387 25.0307 75.7257 25.0307 68.4987C25.0307 61.2718 30.8191 55.4589 38.0154 55.4589C45.2117 55.4589 51 61.2718 51 68.4987C50.8436 75.7257 45.0553 81.5387 38.0154 81.5387Z" fill="#D24E22"/>
<path d="M38.0154 39.7481C22.2148 39.7481 9.23011 52.6309 9.23011 68.4987C9.23011 84.3666 22.2148 97.4065 38.0154 97.4065C53.816 97.4065 66.6442 84.5237 66.6442 68.6559C66.6442 52.6309 53.816 39.7481 38.0154 39.7481ZM38.0154 96.1496C22.8405 96.1496 10.4816 83.7382 10.4816 68.4987C10.4816 53.2593 22.8405 40.8479 38.0154 40.8479C53.1902 40.8479 65.5491 53.2593 65.5491 68.4987C65.5491 83.7382 53.1902 96.1496 38.0154 96.1496Z" fill="#D24E22"/>
<path d="M72.589 68.4987C72.589 67.7132 72.589 66.9277 72.4326 66.1421L75.8743 65.8279C75.8743 64.8853 75.7178 64.0998 75.5614 63.1571L72.1197 63.6284C71.9632 62.8429 71.8068 62.0574 71.6504 61.2718L75.0921 60.4863C74.9356 59.7007 74.6228 58.7581 74.4663 57.9726L71.0246 58.9152C70.8682 58.1297 70.5553 57.3441 70.2424 56.7157L73.5277 55.4589C73.2148 54.6733 72.9019 53.8878 72.589 53.1022L69.3037 54.5162C68.9909 53.7307 68.678 53.1022 68.3651 52.3167L71.4939 50.7456C71.0246 49.9601 70.7117 49.1746 70.2424 48.5461L67.27 50.4314C66.8007 49.803 66.3313 49.1746 66.0185 48.389L68.8344 46.3466C68.3651 45.5611 67.7393 44.9327 67.27 44.3042L64.454 46.5037C63.9847 45.8753 63.359 45.2469 62.8896 44.7756L65.7056 42.419C65.0798 41.7905 64.454 41.1621 63.8283 40.5337L61.4817 43.0474C60.8559 42.5761 60.3866 41.9476 59.7608 41.4763L61.951 38.6484C61.3252 38.1771 60.543 37.5486 59.9172 37.0773L57.8835 40.2195C57.2577 39.7481 56.632 39.2768 55.8498 38.9626L57.7271 35.9776C56.9448 35.5062 56.1626 35.0349 55.3804 34.7207L53.816 37.8628C53.0338 37.5486 52.408 37.0773 51.6258 36.7631L53.0338 33.4638C52.2516 33.1496 51.4694 32.8354 50.6872 32.5212L49.4356 35.8204C48.6534 35.5062 47.8712 35.3491 47.2455 35.0349L48.1841 31.5786C47.4019 31.4214 46.4632 31.1072 45.681 30.9501L44.8988 34.5636C44.1166 34.4065 43.3344 34.2494 42.5522 34.0923L43.0215 30.6359C42.2393 30.4788 41.3007 30.4788 40.5185 30.3217L40.362 33.7781C39.5798 33.7781 38.7976 33.7781 38.0154 33.7781V30.3217C37.0767 30.3217 36.2945 30.3217 35.3559 30.4788L35.6688 33.9352C34.8866 33.9352 34.1043 34.0923 33.3221 34.2494L32.8528 30.793C32.0706 30.9501 31.132 31.1072 30.3497 31.2643L31.132 34.7207C30.3497 34.8778 29.5675 35.0349 28.7853 35.3491L27.8467 31.8928C27.0645 32.207 26.1258 32.3641 25.3436 32.6783L26.5951 35.9776C25.8129 36.2918 25.1872 36.4489 24.405 36.9202L22.997 33.6209C22.2148 33.9352 21.4326 34.4065 20.6504 34.7207L22.2148 37.8628C21.589 38.1771 20.8068 38.6484 20.181 38.9626L18.3037 35.9776C17.5215 36.4489 16.8958 36.9202 16.1136 37.3915L18.1473 40.2195C17.5215 40.6908 16.8958 41.1621 16.27 41.6334L14.0798 38.9626C13.454 39.591 12.8283 40.0623 12.0461 40.6908L14.3927 43.2045C13.7669 43.6758 13.2976 44.3042 12.6718 44.9327L10.1688 42.5761C9.543 43.2045 9.07367 43.8329 8.44791 44.6185L11.2639 46.818C10.7945 47.4464 10.3252 48.0748 9.85588 48.7032L7.03993 46.6609C6.57061 47.2893 6.10128 48.0748 5.63195 48.8604L8.60435 50.7456C8.13502 51.3741 7.82214 52.1596 7.50926 52.788L4.38042 51.217C3.75465 51.8454 3.44177 52.6309 3.12889 53.4165L6.41416 54.8304C6.10128 55.616 5.7884 56.2444 5.47551 57.0299L2.19024 55.7731C1.87735 56.5586 1.56447 57.3441 1.40803 58.2868L4.6933 59.2294C4.53686 60.015 4.22398 60.8005 4.06754 61.586L0.625819 60.8005C0.469378 61.586 0.312936 62.5287 0.156494 63.3142L3.59821 63.7855C3.44177 64.5711 3.44177 65.3566 3.44177 66.1421L0.156494 65.985C0.156494 66.4564 0.156494 66.9277 0.156494 67.399C0.156494 67.7132 0.156494 68.1845 0.156494 68.4987H3.59821C3.59821 68.813 3.59821 69.2843 3.59821 69.5985C3.59821 70.0698 3.59821 70.384 3.59821 70.8554L0.156494 71.1696C0.156494 71.9551 0.312936 72.8978 0.469378 73.6833L3.9111 73.212C4.06754 73.9975 4.22398 74.783 4.38042 75.5686L0.938703 76.3541C1.09514 77.1396 1.25159 78.0823 1.56447 78.8678L5.00619 77.9252C5.16263 78.7107 5.47551 79.4963 5.63195 80.1247L2.34668 81.3815C2.65956 82.1671 2.97245 82.9526 3.28533 83.7382L6.5706 82.3242C6.88349 83.1097 7.19637 83.7382 7.50926 84.5237L4.38042 86.0948C4.84975 86.8803 5.16263 87.6658 5.63195 88.4514L8.60435 86.5661C9.07367 87.1945 9.38656 87.8229 9.85588 88.6085L7.03993 90.6509C7.50926 91.4364 8.13502 92.0648 8.60435 92.6933L11.2639 90.4938C11.7332 91.1222 12.3589 91.7506 12.8283 92.2219L10.3252 94.5786C10.951 95.207 11.5767 95.8354 12.2025 96.4638L14.5491 93.793C15.1749 94.4214 15.6442 94.8928 16.27 95.3641L14.0798 98.192C14.7056 98.8204 15.4878 99.2918 16.1136 99.7631L18.1473 96.9352C18.7731 97.4065 19.3988 97.8778 20.181 98.192L18.3037 101.177C19.0859 101.648 19.8681 102.12 20.6504 102.434L22.2148 99.2918C22.997 99.606 23.6228 100.077 24.405 100.392L22.997 103.691C23.7792 104.005 24.5614 104.319 25.3436 104.633L26.5951 101.334C27.3774 101.648 28.1596 101.805 28.7853 101.963L27.8467 105.262C28.6289 105.419 29.5675 105.733 30.3497 105.89L31.132 102.434C31.9142 102.591 32.6964 102.748 33.4786 102.905L32.8528 106.362C33.635 106.519 34.5737 106.519 35.3559 106.676L35.5123 103.219C36.2945 103.219 37.0767 103.377 37.859 103.377V106.833C38.7976 106.833 39.5798 106.833 40.362 106.676L40.2056 103.219C40.9878 103.219 41.77 103.062 42.5522 102.905L43.0215 106.362C43.8037 106.204 44.7424 106.047 45.5246 105.89L44.7424 102.434C45.5246 102.277 46.3068 102.12 47.089 101.805L48.0277 105.262C48.8099 104.948 49.7485 104.791 50.5307 104.476L49.2792 101.177C50.0614 100.863 50.6872 100.706 51.4694 100.392L52.8774 103.691C53.6596 103.377 54.4418 102.905 55.224 102.591L53.6596 99.4489C54.2853 99.1347 55.0675 98.6633 55.6933 98.3491L57.5706 101.334C58.3528 100.863 58.9786 100.392 59.7608 99.9202L57.8835 96.7781C58.5093 96.3067 59.135 95.8354 59.7608 95.3641L61.951 98.192C62.5767 97.5636 63.359 97.0923 63.9847 96.4638L61.6381 93.793C62.2639 93.3217 62.7332 92.6933 63.359 92.0648L65.862 94.4214C66.4878 93.793 66.9571 93.1646 67.5829 92.3791L64.7669 90.1796C65.2363 89.5511 65.7056 88.9227 66.1749 88.2943L68.9909 90.3367C69.4602 89.5511 69.9295 88.9227 70.3988 88.1372L67.4264 86.2519C67.8958 85.6235 68.2086 84.8379 68.5215 84.2095L71.6504 85.7805C72.1197 84.995 72.4326 84.2095 72.7455 83.4239L69.4602 82.01C69.7731 81.2244 70.086 80.596 70.3988 79.8105L73.6841 81.0673C73.997 80.2818 74.3099 79.4963 74.4663 78.5536L71.0246 77.611C71.181 76.8254 71.4939 76.0399 71.6504 75.2544L75.0921 76.0399C75.2485 75.2544 75.405 74.3117 75.5614 73.5262L72.1197 73.0549C72.2761 72.2693 72.2761 71.4838 72.4326 70.6983L75.8743 71.0125C75.8743 70.0698 76.0307 69.2843 76.0307 68.3416V68.1845L72.589 68.4987ZM38.0154 99.9202C20.8068 99.9202 6.88349 85.7805 6.88349 68.4987C6.88349 51.217 20.8068 37.0773 38.0154 37.0773C55.224 37.0773 69.3037 51.0598 69.3037 68.4987C69.3037 85.7805 55.224 99.9202 38.0154 99.9202Z" fill="#D24E22"/>
<path d="M141.267 39.7481C128.439 39.7481 118.114 50.2743 118.114 63C118.114 75.8828 128.439 86.2519 141.267 86.2519C154.095 86.2519 164.42 75.7257 164.42 63C164.42 50.1172 154.095 39.7481 141.267 39.7481ZM141.267 79.8105C132.037 79.8105 124.528 72.2693 124.528 63C124.528 53.7307 132.037 46.1895 141.267 46.1895C150.497 46.1895 158.006 53.7307 158.006 63C158.006 72.2693 150.497 79.8105 141.267 79.8105Z" fill="#D24E22"/>
<path d="M141.267 30.1646C123.276 30.1646 108.571 44.9327 108.571 63C108.571 81.0673 123.276 95.8354 141.267 95.8354C159.414 95.8354 173.963 81.0673 173.963 63C173.963 44.7756 159.414 30.1646 141.267 30.1646ZM141.267 94.4214C124.058 94.4214 109.979 80.2818 109.979 63C109.979 45.7182 124.058 31.5786 141.267 31.5786C158.476 31.5786 172.555 45.7182 172.555 63C172.555 80.2818 158.476 94.4214 141.267 94.4214Z" fill="#D24E22"/>
<path d="M198.525 62.8429C198.525 56.0873 197.273 49.803 195.239 43.8329L200.402 41.9476C199.15 38.3342 197.43 34.7207 195.552 31.4214L190.703 34.2494C187.417 28.5935 183.193 23.5661 178.344 19.4813L181.942 15.2394C178.969 12.7257 175.841 10.3691 172.399 8.48379L169.583 13.3541C164.107 10.212 158.006 7.85536 151.592 6.75561L152.531 1.25686C148.933 0.314214 145.178 0 141.267 0H141.11V5.49875C134.383 5.49875 128.126 6.5985 122.181 8.79801L120.304 3.61347C116.706 4.87032 113.107 6.5985 109.822 8.48379L112.638 13.3541C107.006 16.6534 102 20.7382 97.9326 25.7656L93.7086 21.995C91.2056 24.98 88.8589 28.1222 86.9816 31.5786L91.8313 34.4065C88.7025 39.9052 86.3559 46.0324 85.1043 52.4738L79.6289 51.5312C78.8467 55.3017 78.5338 59.2294 78.5338 63H84.0093C84.0093 69.5985 85.1043 76.0399 87.2945 82.01L82.132 83.8953C83.3835 87.5087 85.1043 91.1222 86.9816 94.4214L91.8313 91.5935C95.1166 97.2494 99.1841 102.277 104.19 106.362L100.592 110.603C103.564 113.117 106.693 115.474 109.979 117.359L112.795 112.489C118.27 115.631 124.371 117.988 130.785 119.244L129.847 124.743C133.601 125.372 137.512 125.843 141.423 125.843V120.344C148.15 120.344 154.408 119.244 160.353 117.045L162.23 122.229C165.828 120.973 169.426 119.244 172.868 117.359L170.052 112.489C175.684 109.19 180.69 105.105 184.758 100.077L188.982 103.691C191.485 100.706 193.831 97.5636 195.709 94.1072L190.859 91.2793C193.988 85.7805 196.334 79.6534 197.586 73.212L203.061 74.1546C203.374 72.5835 203.531 70.8554 203.844 69.2843C204 68.4987 204 67.8703 204 67.0848C204.157 65.5137 204.157 64.0998 204.157 62.5287V62.8429H198.525ZM141.267 112.175C114.359 112.175 92.3007 90.1796 92.3007 63C92.3007 35.9776 114.203 13.8254 141.267 13.8254C168.331 13.8254 190.233 35.8204 190.233 63C190.233 90.0224 168.331 112.175 141.267 112.175Z" fill="#D24E22"/>
</svg>
