<svg width="120" height="121" viewBox="0 0 120 121" fill="none" xmlns="http://www.w3.org/2000/svg">
<path d="M112.845 36.3429C112.161 35.6572 112.161 34.9715 112.161 34.9715C112.161 34.9715 112.161 34.9715 112.161 34.2858C112.161 34.2858 112.161 34.2858 112.161 33.6001V34.2858C112.161 34.9715 112.161 34.9715 112.845 34.9715C112.161 35.6572 112.845 36.3429 112.845 36.3429Z" fill="black"/>
<path d="M37.615 7.54289C38.9828 7.54289 40.3506 6.85718 40.3506 6.85718C40.3506 6.85718 39.6667 6.85718 37.615 7.54289C36.931 7.54289 36.931 7.54289 36.2471 7.54289C36.2471 7.54289 36.2471 7.54289 34.8793 8.22861C34.8793 8.91432 36.931 7.54289 37.615 7.54289Z" fill="black"/>
<path d="M5.47127 37.7143C6.83908 35.6572 7.52299 34.2857 9.57472 30.8572C8.2069 32.9143 6.83908 35.6572 5.47127 37.7143Z" fill="black"/>
<path d="M106.006 20.5715C106.69 21.2572 106.69 21.9429 107.374 22.6286C107.374 21.9429 107.374 21.9429 106.006 20.5715Z" fill="black"/>
<path d="M108.057 24.0001C108.741 25.3715 109.425 26.7429 110.109 28.1143C109.425 27.4286 108.741 25.3715 108.057 24.0001Z" fill="black"/>
<path d="M103.954 19.2C104.638 19.8857 104.638 20.5714 105.322 21.2572C105.322 20.5714 105.322 19.8857 103.954 19.2C104.638 19.8857 104.638 19.2 103.954 19.2Z" fill="black"/>
<path d="M46.5057 8.22859C47.1897 8.22859 48.5575 8.22859 49.9253 7.54288C49.2414 7.54288 48.5575 7.54288 47.8736 7.54288C46.5057 7.54288 45.8218 7.54288 43.7701 8.22859C43.7701 8.22859 43.0862 8.22859 42.4023 8.22859H43.0862C44.454 8.22859 45.1379 8.22859 46.5057 8.22859Z" fill="black"/>
<path d="M2.05172 41.8286C2.73563 39.7715 3.41954 38.4 4.78736 37.0286C4.10345 37.7143 3.41954 39.7715 2.05172 41.8286Z" fill="black"/>
<path d="M34.1954 10.9714C34.1954 10.9714 36.2471 10.2857 37.6149 10.2857C38.2989 10.2857 39.6667 9.60001 40.3506 9.60001C40.3506 9.60001 38.9828 9.60001 38.2989 10.2857C36.931 10.2857 34.8793 10.9714 34.1954 10.9714Z" fill="black"/>
<path d="M103.954 17.1429C103.27 17.1429 103.954 17.8286 105.322 18.5143C104.638 18.5143 103.954 17.8286 103.954 17.1429Z" fill="black"/>
<path d="M25.3046 16.4572C25.9885 16.4572 27.3563 15.7715 28.0402 15.0858C28.0402 15.0858 26.6724 15.7715 25.3046 16.4572Z" fill="black"/>
<path d="M73.1782 0.68573C73.8621 0.68573 73.1782 0.68573 74.546 0.68573C73.8621 0.68573 73.8621 0.68573 73.1782 0.68573Z" fill="black"/>
<path d="M99.1667 14.4C99.1667 13.7143 98.4828 13.7143 97.7989 13.0286C98.4828 13.0286 98.4828 13.0286 99.1667 14.4Z" fill="black"/>
<path d="M8.2069 35.6572C8.89081 34.9715 9.57471 34.2858 10.9425 32.2286C9.57471 33.6 8.89081 34.2857 8.2069 35.6572Z" fill="black"/>
<path d="M88.908 5.48575C89.592 5.48575 89.5919 6.17146 90.2759 6.17146C90.9598 6.85718 90.2759 6.17146 88.908 5.48575Z" fill="black"/>
<path d="M75.9138 6.17146H76.5977C77.2816 6.17146 76.5977 6.17146 75.9138 6.17146C75.2299 6.17146 75.9138 6.17146 75.2299 5.48575C75.2299 5.48575 75.2299 5.48575 75.9138 6.17146Z" fill="black"/>
<path d="M41.0345 7.54288C41.0345 7.54288 40.3506 7.54288 39.6667 7.54288C39.6667 8.22859 39.6667 8.22859 41.0345 7.54288Z" fill="black"/>
<path d="M112.161 29.4857C112.161 30.1715 112.161 30.1715 112.845 31.5429C112.845 30.8572 112.161 30.1715 112.161 29.4857Z" fill="black"/>
<path d="M51.977 1.37149C51.977 1.37149 52.6609 1.37149 53.3448 1.37149C53.3448 1.37149 52.6609 1.37149 51.977 1.37149C51.2931 1.37149 51.2931 1.37149 50.6092 1.37149H51.977Z" fill="black"/>
<path d="M90.9598 7.54291C91.6437 8.22862 92.3276 8.22862 92.3276 8.91434C92.3276 8.91434 91.6437 8.22862 90.9598 7.54291C90.9598 7.54291 90.2759 6.85719 88.908 6.17148C89.592 6.85719 90.2759 6.85719 90.9598 7.54291Z" fill="black"/>
<path d="M24.6207 15.0858C25.3046 14.4 26.6724 13.7143 27.3563 13.0286C28.0402 13.0286 28.7241 12.3429 29.408 12.3429C28.7241 12.3429 28.7241 13.0286 28.0402 13.0286C27.3563 13.7143 25.9885 13.7143 24.6207 15.0858C24.6207 14.4 24.6207 14.4 24.6207 15.0858Z" fill="black"/>
<path d="M34.1954 9.60005C34.1954 9.60005 35.5632 8.91434 36.2471 8.91434C36.931 8.91434 36.2471 8.91434 35.5632 8.91434C34.8793 8.91434 34.1954 8.91434 34.1954 9.60005Z" fill="black"/>
<path d="M54.7126 2.05716C55.3965 2.05716 56.0805 2.05716 57.4483 2.05716C56.0805 2.05716 56.0805 2.05716 54.7126 2.05716Z" fill="black"/>
<path d="M77.2816 2.05722C76.5977 2.05722 77.2816 2.05722 77.9655 2.74293C77.9655 2.74293 77.9655 2.74293 77.2816 2.05722Z" fill="black"/>
<path d="M67.7069 3.4286C67.023 3.4286 66.3391 3.4286 65.6552 2.74289C65.6552 3.4286 66.3391 3.4286 67.7069 3.4286Z" fill="black"/>
<path d="M99.1667 13.0287C99.1667 13.0287 98.4828 12.3429 97.7989 11.6572C97.7989 12.3429 99.1667 13.0287 99.1667 13.0287Z" fill="black"/>
<path d="M12.3103 27.4286C12.3103 27.4286 12.9943 26.7429 13.6782 26.0572C13.6782 26.0572 12.9943 26.7429 12.3103 27.4286Z" fill="black"/>
<path d="M19.8333 19.8857C19.8333 19.8857 19.1494 19.8857 19.1494 20.5715C18.4655 21.2572 19.1494 21.2572 19.1494 21.2572C19.1494 20.5715 19.8333 20.5715 19.8333 19.8857Z" fill="black"/>
<path d="M21.8851 16.4572C23.2529 15.0857 24.6207 14.4 25.9885 13.7143H26.6724C26.6724 13.7143 27.3563 13.7143 27.3563 13.0286C26.6724 13.0286 25.9885 13.7143 23.9368 15.0857C23.2529 15.0857 23.2529 15.0857 21.8851 16.4572C21.8851 16.4572 21.8851 16.4572 20.5172 17.1429C20.5172 17.1429 21.2012 16.4572 21.8851 16.4572Z" fill="black"/>
<path d="M47.1897 3.42859C47.1897 3.42859 46.5057 3.42859 45.8218 3.42859C45.8218 3.42859 46.5057 3.42859 47.1897 3.42859Z" fill="black"/>
<path d="M19.1494 21.9429C19.1494 21.9429 20.5172 20.5715 21.2011 20.5715C20.5172 21.2572 19.8333 21.9429 19.1494 21.9429Z" fill="black"/>
<path d="M52.6609 4.80005C51.977 4.80005 51.2931 4.80005 49.9253 4.80005C48.5575 4.80005 47.1897 4.80005 45.8218 5.48576C47.1897 5.48576 48.5575 4.80005 49.9253 4.80005C50.6092 4.80005 51.2931 4.80005 52.6609 4.80005Z" fill="black"/>
<path d="M41.7184 8.91434C42.4023 8.91434 41.7184 8.91434 40.3506 8.91434C41.0345 8.91434 41.0345 8.91434 41.7184 8.91434Z" fill="black"/>
<path d="M14.3621 26.0572C14.3621 26.0572 15.046 26.0572 15.046 25.3715C15.7299 25.3715 15.7299 24.6858 16.4138 24.6858C16.4138 24.6858 17.0977 24.6858 17.0977 24C17.7816 23.3143 17.7816 23.3143 17.0977 23.3143C16.4138 23.3143 15.7299 24 15.7299 24.6858C15.046 24.6858 14.3621 25.3715 14.3621 26.0572Z" fill="black"/>
<path d="M19.8333 20.5715C19.8333 19.8858 19.1494 20.5715 19.1494 21.2572C19.1494 21.2572 19.1494 21.2572 19.8333 20.5715Z" fill="black"/>
<path d="M16.4138 22.6286C16.4138 23.3143 17.0977 22.6286 17.7816 21.9429C17.0977 22.6286 17.0977 22.6286 16.4138 22.6286Z" fill="black"/>
<path d="M35.5632 7.54288C34.8793 7.54288 34.8793 7.54288 34.8793 7.54288H35.5632Z" fill="black"/>
<path d="M20.5172 17.1429C20.5172 17.1429 21.2012 16.4572 21.8851 16.4572C21.2012 16.4572 21.2012 16.4572 20.5172 17.1429Z" fill="black"/>
<path d="M15.046 21.2572C14.3621 21.2572 13.6782 21.9429 13.6782 22.6286C13.6782 22.6286 14.3621 21.9429 15.046 21.2572Z" fill="black"/>
<path d="M115.58 42.5143C114.897 41.8286 114.897 41.8286 115.58 42.5143Z" fill="black"/>
<path d="M115.58 42.5143C115.58 42.5143 115.58 43.2001 115.58 43.8858C115.58 43.8858 115.58 43.2 115.58 42.5143Z" fill="black"/>
<path d="M6.15517 34.9715C6.15517 34.2858 6.83908 34.2858 6.83908 33.6001C6.83908 33.6001 6.15517 34.2858 6.15517 34.9715Z" fill="black"/>
<path d="M7.52299 35.6572C7.52299 35.6572 6.83908 37.0286 6.15518 37.7143C6.15518 38.4001 5.47127 39.0858 5.47127 39.7715C5.47127 39.7715 6.15518 39.0858 6.15518 38.4001C6.15518 37.7143 6.83908 37.0286 7.52299 35.6572Z" fill="black"/>
<path d="M106.006 21.2572C106.006 20.5715 105.322 20.5715 105.322 20.5715C105.322 20.5715 105.322 21.2572 106.006 21.2572Z" fill="black"/>
<path d="M48.5575 2.05716C49.2414 2.05716 49.2414 2.05716 48.5575 2.05716Z" fill="black"/>
<path d="M112.845 32.9143C112.161 32.9143 112.161 32.9143 112.845 32.9143Z" fill="black"/>
<path d="M111.477 27.4286C110.793 27.4286 110.793 27.4286 111.477 27.4286C110.793 26.7429 110.793 26.7429 111.477 27.4286Z" fill="black"/>
<path d="M77.9655 2.05717C77.2816 2.05717 77.2816 2.05722 77.2816 2.05722C77.2816 1.37151 77.9655 2.05717 77.9655 2.05717Z" fill="black"/>
<path d="M2.05172 46.6286C2.05172 46.6286 1.36782 48.6858 0.683908 50.0572C0.683908 50.7429 0.683908 51.4286 0 52.1143C0 52.8001 0 51.4286 0.683908 50.7429C0.683908 50.7429 1.36782 48.0001 2.05172 46.6286Z" fill="black"/>
<path d="M21.8851 18.5143C21.8851 19.2001 21.2011 19.2001 21.8851 18.5143C21.2011 19.2001 21.2011 19.2001 21.8851 18.5143Z" fill="black"/>
<path d="M11.6264 28.8C11.6264 28.8 12.3103 28.1143 12.9943 27.4286C12.3103 27.4286 12.3103 28.1143 11.6264 28.8Z" fill="black"/>
<path d="M12.3103 23.3143C12.3103 23.3143 12.9942 22.6286 13.6782 22.6286C13.6782 21.9429 12.9943 22.6286 12.3103 23.3143Z" fill="black"/>
<path d="M86.8563 4.80005C86.8563 4.80005 87.5402 4.80005 87.5402 5.48576C87.5402 5.48576 87.5402 5.48576 86.8563 4.80005Z" fill="black"/>
<path d="M58.8161 2.05716C58.1322 2.05716 58.1322 2.05716 58.8161 2.05716Z" fill="black"/>
<path d="M52.6609 2.05716H53.3448C53.3448 2.05716 53.3448 2.05716 52.6609 2.05716Z" fill="black"/>
<path d="M106.006 21.2572C106.006 21.2572 106.006 20.5715 105.322 20.5715C105.322 20.5715 106.006 20.5715 106.006 21.2572Z" fill="black"/>
<path d="M112.845 35.6572L112.845 34.9715C112.845 34.9715 112.845 34.9714 112.845 35.6572Z" fill="black"/>
<path d="M71.8103 2.74293C70.4425 2.05722 69.7586 2.05722 68.3908 2.05722C69.0747 2.05722 69.7586 2.74293 70.4425 2.74293C71.1264 2.74293 71.8103 2.74293 71.8103 2.74293Z" fill="black"/>
<path d="M76.5977 3.4286C75.9138 3.4286 74.546 2.74289 73.8621 2.74289C74.546 3.4286 75.2299 3.4286 76.5977 3.4286Z" fill="black"/>
<path d="M90.2759 10.2857C90.2759 10.2857 89.592 9.60001 88.908 9.60001C89.592 9.60001 90.2759 9.60001 90.2759 10.2857Z" fill="black"/>
<path d="M34.8793 43.2001C34.8793 43.8858 34.1954 43.8858 34.8793 43.2001C34.1954 43.8858 34.1954 44.5715 34.1954 44.5715C34.1954 43.8858 34.8793 43.8858 34.8793 43.2001C34.8793 43.8858 34.8793 43.8858 34.8793 43.2001Z" fill="black"/>
<path d="M78.6494 36.3429C79.3333 36.3429 79.3333 36.3429 78.6494 36.3429C79.3333 37.0286 78.6494 37.0286 79.3333 37.0286C80.0172 37.0286 79.3333 36.3429 78.6494 36.3429C78.6494 35.6571 77.9655 35.6571 77.9655 34.9714C77.9655 34.9714 77.9655 35.6571 78.6494 36.3429Z" fill="black"/>
<path d="M88.2241 52.8001C88.2241 52.1143 88.2241 50.7429 88.2241 49.3715C88.2241 50.0572 88.9081 51.4286 88.2241 52.8001Z" fill="black"/>
<path d="M43.0862 38.4C42.4023 38.4 42.4023 38.4 41.7184 39.0857C42.4023 39.0857 42.4023 39.0857 43.0862 38.4Z" fill="black"/>
<path d="M38.2989 41.1429C38.9828 40.4572 39.6667 39.7715 41.0345 39.7715C39.6667 39.7715 38.9828 39.7715 38.2989 41.1429Z" fill="black"/>
<path d="M43.7701 37.7143H43.0862C43.0862 38.4 43.0862 37.7143 43.7701 37.7143Z" fill="black"/>
<path d="M77.9655 32.9143C77.2816 32.2286 77.2816 32.2286 76.5977 31.5429C76.5977 31.5429 75.2299 30.8572 74.546 30.1715L75.2299 30.8572C76.5977 31.5429 77.2816 32.2286 77.9655 32.9143Z" fill="black"/>
<path d="M87.5402 54.8572C87.5402 54.1715 87.5402 53.4858 87.5402 52.8001C87.5402 52.8001 87.5402 54.1715 87.5402 54.8572Z" fill="black"/>
<path d="M80.7011 34.2858C80.7011 34.9715 82.069 35.6572 82.069 35.6572C82.069 36.3429 80.7011 34.9715 80.7011 34.2858L80.0172 33.6001C80.0172 33.6001 80.0172 34.2858 80.7011 34.2858Z" fill="black"/>
<path d="M44.454 37.7143C44.454 37.7143 45.1379 37.7143 45.1379 37.0286C45.1379 37.7143 45.1379 37.7143 44.454 37.7143Z" fill="black"/>
<path d="M85.4885 39.7715C85.4885 39.0857 84.8046 39.0857 84.8046 38.4C84.8046 38.4 84.8046 39.0857 85.4885 39.7715Z" fill="black"/>
<path d="M61.5517 34.2857H62.2356C62.9195 34.2857 62.2356 34.2857 61.5517 34.2857C62.2356 34.2857 62.2356 34.2857 61.5517 34.2857Z" fill="black"/>
<path d="M47.8736 35.6572C47.8736 35.6572 48.5575 35.6572 49.2414 35.6572C48.5575 35.6572 48.5575 35.6572 47.8736 35.6572Z" fill="black"/>
<path d="M89.592 48.6857C89.592 49.3714 89.592 50.0571 89.592 50.7428C90.2759 50.7428 90.2759 50.0571 89.592 48.6857Z" fill="black"/>
<path d="M54.0287 34.9714C54.0287 34.9714 54.0287 34.9714 54.7126 34.9714H54.0287Z" fill="black"/>
<path d="M60.1839 30.1715C60.8678 30.1715 60.8678 30.1715 60.1839 30.1715Z" fill="black"/>
<path d="M37.6149 43.2001C38.2989 42.5143 38.2988 42.5143 38.9828 42.5143C38.2988 42.5143 37.6149 42.5143 37.6149 43.2001Z" fill="black"/>
<path d="M71.8104 34.9714C72.4943 35.6571 72.4943 34.9714 71.8104 34.9714Z" fill="black"/>
<path d="M53.3448 34.9714C52.6609 34.9714 52.6609 34.9714 51.977 34.9714C51.977 34.9714 52.6609 34.9714 53.3448 34.9714C53.3448 34.9714 54.0287 34.9714 54.7126 34.9714C54.0287 34.9714 54.0287 34.9714 53.3448 34.9714Z" fill="black"/>
<path d="M84.1207 40.4572C84.1207 40.4572 83.4368 39.7715 83.4368 39.0857C83.4368 39.0857 83.4368 38.4 82.7529 38.4C82.7529 38.4 82.7529 39.0857 83.4368 39.0857C83.4368 39.7715 83.4368 40.4572 84.1207 40.4572Z" fill="black"/>
<path d="M80.7011 37.7143C80.7011 37.0286 80.0172 37.0286 80.0172 36.3429C80.0172 36.3429 80.0172 36.3429 80.0172 37.0286C80.0172 37.0286 80.7011 37.0286 80.7011 37.7143Z" fill="black"/>
<path d="M69.7586 33.6001C69.7586 33.6001 70.4425 34.2858 71.1264 34.2858C70.4425 34.2858 70.4425 33.6001 69.7586 33.6001Z" fill="black"/>
<path d="M66.3391 31.5429C66.3391 31.5429 65.6552 31.5429 64.9713 30.8572C65.6552 31.5429 65.6552 31.5429 66.3391 31.5429Z" fill="black"/>
<path d="M45.1379 37.0286C45.8218 37.0286 47.1897 36.3429 47.8736 36.3429C47.8736 36.3429 48.5575 36.3429 49.2414 36.3429C49.2414 36.3429 48.5575 36.3429 47.8736 36.3429C47.1897 36.3429 46.5057 37.0286 45.1379 37.0286Z" fill="black"/>
<path d="M31.4598 50.7429C31.4598 51.4286 30.7759 51.4286 30.7759 52.1143C30.7759 51.4286 31.4598 50.7429 31.4598 50.7429Z" fill="black"/>
<path d="M88.2241 47.3144C88.2241 47.3144 88.2241 46.6287 88.2241 45.943C88.2241 45.943 88.2241 46.6287 88.2241 47.3144Z" fill="black"/>
<path d="M86.8563 42.5143C86.8563 43.2001 86.8563 43.2001 86.8563 42.5143Z" fill="black"/>
<path d="M83.4368 40.4572C83.4368 39.7715 83.4368 39.7715 82.7529 39.7715C82.7529 39.0858 82.7529 39.7715 83.4368 40.4572C83.4368 40.4572 83.4368 40.4572 84.1207 41.8286C84.1207 41.8286 84.1207 42.5143 84.8046 42.5143C84.8046 42.5143 84.8046 42.5143 84.8046 43.2001V42.5143C84.1207 41.8286 84.1207 41.1429 83.4368 40.4572Z" fill="black"/>
<path d="M31.4598 47.3143C31.4598 47.3143 31.4598 47.3143 30.7759 48C31.4598 48 31.4598 48 31.4598 47.3143Z" fill="black"/>
<path d="M74.546 35.6572C74.546 34.9715 73.8621 34.9715 74.546 35.6572Z" fill="black"/>
<path d="M75.9138 34.2857C75.2299 33.6 74.546 33.6 73.8621 32.9143C73.1782 32.9143 73.1782 32.2286 72.4943 32.2286C72.4943 32.2286 71.8104 31.5428 71.1264 31.5428L71.8104 32.2286C72.4943 32.2286 72.4943 32.9143 73.1782 32.9143C74.546 32.9143 75.2299 33.6 75.9138 34.2857Z" fill="black"/>
<path d="M88.2241 45.943C88.2241 45.2572 88.2241 45.2572 88.2241 44.5715C88.2241 44.5715 88.2241 44.5715 88.2241 43.8857V44.5715C88.2241 45.2572 88.2241 45.943 88.2241 45.943Z" fill="black"/>
<path d="M87.5402 43.2C86.8563 43.2 86.8563 42.5143 87.5402 43.2Z" fill="black"/>
<path d="M79.3333 37.7143C80.0172 37.7143 80.0172 37.7143 79.3333 37.7143Z" fill="black"/>
<path d="M77.2816 35.6572C76.5977 35.6572 76.5977 34.9714 77.2816 35.6572C76.5977 34.9714 76.5977 34.9714 76.5977 34.9714C76.5977 34.9714 76.5977 35.6572 77.2816 35.6572Z" fill="black"/>
<path d="M84.8046 43.2001C84.1207 42.5143 84.1207 42.5143 84.8046 43.2001Z" fill="black"/>
<path d="M85.4885 45.943V46.6287C85.4885 46.6287 85.4885 46.6287 85.4885 45.943Z" fill="black"/>
<path d="M32.1437 48.6857C32.1437 48.6857 32.1437 49.3714 31.4598 49.3714C32.1437 49.3714 32.1437 49.3714 32.1437 48.6857Z" fill="black"/>
<path d="M87.5402 50.7429V51.4286C87.5402 51.4286 87.5402 51.4286 87.5402 50.7429Z" fill="black"/>
<path d="M89.592 52.1143C89.592 52.1143 89.592 51.4286 89.592 50.7428C88.908 51.4286 88.908 52.1143 89.592 52.1143V52.8C89.592 52.8 89.592 52.8 89.592 52.1143Z" fill="black"/>
<path d="M42.4023 38.4001C43.0862 37.7143 42.4023 37.7143 42.4023 38.4001Z" fill="black"/>
<path d="M30.0919 52.8001V53.4858C30.0919 52.8001 30.0919 52.8001 30.0919 52.8001Z" fill="black"/>
<path d="M60.8678 34.2857C60.1839 34.2857 60.1839 34.2857 60.8678 34.2857Z" fill="black"/>
<path d="M88.2241 56.2286C88.2241 56.2286 88.2241 56.9143 87.5402 57.6V58.2857C87.5402 58.2857 87.5402 58.2857 87.5402 57.6C88.2241 57.6 88.2241 56.9143 88.2241 56.2286Z" fill="black"/>
<path d="M88.2241 48V47.3144C88.2241 47.3144 88.2241 47.3143 88.2241 48Z" fill="black"/>
<path d="M69.0747 32.9143C69.7586 32.9143 69.7586 32.9143 69.0747 32.9143Z" fill="black"/>
<path d="M34.8793 44.5715C34.8793 43.8858 34.8793 43.8858 34.8793 44.5715Z" fill="black"/>
<path d="M63.6035 32.9143C62.9195 32.9143 62.9195 32.2286 63.6035 32.9143C62.9195 32.9143 62.9195 32.9143 63.6035 32.9143Z" fill="black"/>
<path d="M61.5517 32.9143C61.5517 32.9143 60.8678 32.9143 60.1839 32.9143C60.8678 32.2286 61.5517 32.2286 61.5517 32.9143Z" fill="black"/>
<path d="M6.15517 85.0287C6.83908 86.4001 6.83908 86.4001 6.83908 86.4001C6.83908 86.4001 6.83908 86.4001 6.83908 87.0858V86.4001C6.83908 85.7144 6.83908 85.7144 6.15517 85.7144C6.83908 85.7144 6.83908 85.0287 6.15517 85.0287Z" fill="black"/>
<path d="M81.385 113.829C80.0172 114.514 79.3333 114.514 78.6494 114.514C78.6494 114.514 79.3333 114.514 81.385 113.829C82.069 113.829 82.069 113.829 82.7529 113.829C82.7529 113.829 82.7529 113.829 84.1207 113.143C84.1207 113.143 82.069 113.829 81.385 113.829Z" fill="black"/>
<path d="M113.529 83.6572C112.161 85.7143 111.477 87.0858 109.425 90.5143C110.793 88.4572 112.845 86.4001 113.529 83.6572Z" fill="black"/>
<path d="M12.9943 100.8C12.3103 100.114 12.3103 99.4286 11.6264 98.7429C12.3103 99.4286 12.3103 99.4286 12.9943 100.8Z" fill="black"/>
<path d="M73.1782 113.143C72.4943 113.143 71.1264 113.143 69.7586 113.829C70.4425 113.829 71.1264 113.829 71.8103 113.829C73.1782 113.829 73.8621 113.829 75.9138 113.143C75.9138 113.143 76.5977 113.143 77.2816 113.143H76.5977C75.2299 113.143 73.8621 113.143 73.1782 113.143Z" fill="black"/>
<path d="M116.948 79.5429C116.264 81.6 115.58 82.9714 114.213 84.3429C114.897 83.6572 116.264 81.6 116.948 79.5429Z" fill="black"/>
<path d="M85.4885 110.4C85.4885 110.4 83.4368 111.086 82.069 111.086C81.3851 111.086 80.0172 111.771 79.3333 111.771C79.3333 111.771 80.7011 111.771 81.3851 111.086C82.069 111.086 84.1207 110.4 85.4885 110.4Z" fill="black"/>
<path d="M15.7299 104.229C16.4138 104.229 15.7299 103.543 14.3621 102.857C14.3621 102.857 15.046 103.543 15.7299 104.229Z" fill="black"/>
<path d="M93.6954 104.914C93.0115 104.914 91.6437 105.6 90.9598 106.286C91.6437 106.286 92.3276 105.6 93.6954 104.914Z" fill="black"/>
<path d="M45.8218 120.686C45.1379 120.686 45.8218 120.686 44.454 120.686C45.1379 120.686 45.8218 120.686 45.8218 120.686Z" fill="black"/>
<path d="M19.8333 106.971C19.8333 107.657 20.5172 107.657 21.2011 108.343C21.2011 108.343 21.2011 108.343 19.8333 106.971Z" fill="black"/>
<path d="M110.793 85.7143C110.109 86.4 109.425 87.0858 108.057 89.1429C109.425 87.7715 110.109 87.0858 110.793 85.7143Z" fill="black"/>
<path d="M30.092 115.886C29.408 115.886 29.408 115.2 28.7241 115.2C28.7241 114.514 28.7241 115.2 30.092 115.886Z" fill="black"/>
<path d="M43.0862 115.2H42.4023C42.4023 115.2 42.4023 115.2 43.0862 115.2C43.7701 115.2 43.0862 115.2 43.7701 115.886C44.454 115.886 43.7701 115.886 43.0862 115.2Z" fill="black"/>
<path d="M77.9655 113.829C78.6494 113.829 78.6494 113.829 79.3333 113.829C80.0172 113.143 80.0172 113.143 77.9655 113.829Z" fill="black"/>
<path d="M6.83908 91.8857C6.83908 91.2 6.83908 91.2 6.15517 89.8286C6.83908 90.5143 6.83908 91.2 6.83908 91.8857Z" fill="black"/>
<path d="M67.023 120C67.023 120 66.3391 120 65.6552 120C65.6552 120 66.3391 120 67.023 120C67.7069 120 67.7069 120 68.3908 120C68.3908 120 67.7069 120 67.023 120Z" fill="black"/>
<path d="M28.0402 113.829C27.3563 113.143 26.6724 113.143 26.6724 112.457C26.6724 112.457 27.3563 113.143 28.0402 113.829C28.0402 113.829 28.7241 114.514 30.0919 115.2C29.408 114.514 28.7241 114.514 28.0402 113.829Z" fill="black"/>
<path d="M94.3793 106.286C93.6954 106.971 92.3276 106.971 91.6437 107.657C90.9598 107.657 90.2759 108.343 89.592 108.343C90.2759 108.343 90.2759 107.657 90.9598 107.657C92.3276 108.343 93.0115 107.657 94.3793 106.286C94.3793 106.971 94.3793 106.971 94.3793 106.286Z" fill="black"/>
<path d="M84.8046 111.772C84.8046 111.772 83.4368 112.457 82.7529 112.457C82.069 112.457 82.7529 112.457 83.4368 112.457C84.1207 112.457 84.8046 112.457 84.8046 111.772C86.1724 111.772 84.8046 112.457 84.8046 111.772Z" fill="black"/>
<path d="M64.9713 119.314C64.2874 119.314 63.6035 119.314 62.2356 119.314C62.9195 119.314 63.6035 120 64.9713 119.314Z" fill="black"/>
<path d="M41.7184 119.314C42.4023 119.314 41.7184 119.314 41.0345 118.629C41.0345 118.629 41.0345 118.629 41.7184 119.314Z" fill="black"/>
<path d="M19.8333 108.343C19.8333 108.343 20.5172 109.029 21.2011 109.714C21.2011 109.714 20.5172 109.029 19.8333 108.343Z" fill="black"/>
<path d="M106.69 93.9429C106.69 93.9429 106.006 94.6286 105.322 95.3143C105.322 95.3143 106.006 94.6286 106.69 93.9429Z" fill="black"/>
<path d="M99.1667 101.486C99.1667 101.486 99.8506 101.486 99.8506 100.8C100.535 100.114 100.534 100.114 100.534 100.114C99.8506 100.8 99.1667 100.8 99.1667 101.486Z" fill="black"/>
<path d="M97.1149 104.914C95.7471 105.6 94.3793 106.972 93.0115 107.657H92.3276C92.3276 107.657 91.6437 107.657 91.6437 108.343C93.0115 107.657 93.6954 107.657 95.7471 106.286C95.7471 106.286 96.431 106.286 97.1149 104.914C97.1149 104.914 97.1149 104.914 98.4828 104.229C98.4828 104.229 97.7988 104.914 97.1149 104.914Z" fill="black"/>
<path d="M71.8103 117.943C71.8103 117.943 72.4942 117.943 73.1782 117.943C73.1782 117.943 72.4942 117.943 71.8103 117.943Z" fill="black"/>
<path d="M99.8506 99.4286C99.8506 99.4286 98.4828 100.8 97.7989 100.8C98.4828 100.114 99.1667 99.4286 99.8506 99.4286Z" fill="black"/>
<path d="M67.023 116.571C66.3391 116.571 65.6552 116.571 64.9713 116.571C64.9713 116.571 65.6552 116.571 67.023 116.571C67.7069 116.571 68.3908 116.571 69.7586 116.571C71.1264 116.571 72.4943 116.571 73.8621 115.886C72.4943 115.886 71.1264 116.571 69.7586 116.571C68.3908 116.571 67.7069 116.571 67.023 116.571Z" fill="black"/>
<path d="M77.2816 112.457C76.5977 112.457 77.2816 112.457 78.6494 112.457C77.9655 112.457 77.9655 112.457 77.2816 112.457Z" fill="black"/>
<path d="M105.322 95.3143C105.322 95.3143 104.638 95.3143 104.638 96C103.954 96 103.954 96.6857 103.27 96.6857C103.27 96.6857 102.586 96.6857 102.586 97.3714C101.902 98.0572 101.902 98.0572 102.586 98.0572C103.27 97.3714 103.27 97.3714 103.954 96.6857C103.954 96.6857 104.638 96 105.322 95.3143Z" fill="black"/>
<path d="M99.1667 100.8C99.1667 101.486 99.8506 100.8 99.8506 100.114C100.535 100.114 99.8506 100.114 99.1667 100.8Z" fill="black"/>
<path d="M102.586 98.7429C102.586 98.0572 101.902 98.7429 101.218 99.4286C101.902 98.7429 101.902 99.4286 102.586 98.7429Z" fill="black"/>
<path d="M75.2299 115.886C75.9138 115.886 76.5977 115.886 76.5977 115.886C76.5977 115.886 76.5977 115.886 75.2299 115.886C75.9138 115.886 75.9138 115.886 75.2299 115.886Z" fill="black"/>
<path d="M99.1667 104.229C99.1667 104.229 98.4828 104.914 97.7989 104.914C97.7989 104.914 98.4828 104.914 99.1667 104.229Z" fill="black"/>
<path d="M104.638 100.114C105.322 99.4286 105.322 99.4286 106.006 98.7429C106.006 98.7429 105.322 100.114 104.638 100.114Z" fill="black"/>
<path d="M14.3621 102.171C14.3621 102.171 14.3621 101.486 13.6782 101.486C13.6782 101.486 13.6782 102.171 14.3621 102.171Z" fill="black"/>
<path d="M4.10345 78.8571C4.10345 79.5429 4.10345 79.5429 4.10345 78.8571Z" fill="black"/>
<path d="M3.41954 78.8572C3.41954 78.1715 3.41954 78.1715 3.41954 77.4857C3.41954 77.4857 3.41954 78.1715 3.41954 78.8572Z" fill="black"/>
<path d="M113.529 86.4C113.529 87.0857 112.845 87.7714 112.161 88.4571C112.161 87.7714 112.845 87.0857 113.529 86.4Z" fill="black"/>
<path d="M112.161 85.7143C112.161 85.7143 112.845 84.3429 113.529 83.6572C113.529 82.9715 114.213 82.2858 114.213 81.6001C114.213 81.6001 113.529 82.2858 113.529 82.9715C112.845 84.3429 112.161 84.3429 112.161 85.7143Z" fill="black"/>
<path d="M70.4425 119.314C71.1264 119.314 71.1264 119.314 70.4425 119.314Z" fill="black"/>
<path d="M3.41954 63.7715C3.41954 63.0857 3.41954 63.0857 3.41954 63.7715Z" fill="black"/>
<path d="M8.2069 93.9429C8.2069 94.6286 8.2069 94.6286 8.2069 93.9429Z" fill="black"/>
<path d="M41.0345 119.314C41.7184 119.314 41.7184 119.314 41.7184 119.314C41.7184 120 41.7184 119.314 41.0345 119.314Z" fill="black"/>
<path d="M119 70.6286C119 70.6286 118.316 73.3715 117.632 74.7429C117.632 75.4286 118.316 72.6857 119 70.6286C119 70.6286 119 69.9429 119.684 69.2572C119 69.2572 119 70.6286 119 70.6286Z" fill="black"/>
<path d="M97.7989 102.857C97.115 102.857 97.115 102.171 97.7989 102.857C97.115 102.857 97.115 102.857 97.7989 102.857Z" fill="black"/>
<path d="M108.057 92.5714C108.057 92.5714 107.374 93.2572 107.374 93.9429C106.69 93.9429 107.374 93.2572 108.057 92.5714Z" fill="black"/>
<path d="M106.69 98.0572C106.006 98.7429 106.006 98.7429 105.322 99.4286C106.006 99.4286 106.69 98.7429 106.69 98.0572Z" fill="black"/>
<path d="M32.1437 116.571C32.1437 116.571 31.4598 116.571 31.4598 115.886L32.1437 116.571Z" fill="black"/>
<path d="M60.1839 119.314C60.8678 119.314 60.8678 119.314 60.1839 119.314Z" fill="black"/>
<path d="M66.3391 119.314H65.6552C65.6552 119.314 65.6552 119.314 66.3391 119.314Z" fill="black"/>
<path d="M12.9943 100.114C12.9943 100.114 12.9943 100.8 13.6782 100.8C13.6782 100.8 13.6782 100.8 12.9943 100.114Z" fill="black"/>
<path d="M6.15517 85.7144V86.4C6.83908 86.4 6.15517 86.4001 6.15517 85.7144Z" fill="black"/>
<path d="M47.1897 118.629C48.5575 119.314 49.2414 119.314 50.6092 119.314C49.9253 119.314 49.2414 118.629 48.5575 118.629C47.8736 119.314 47.1897 118.629 47.1897 118.629Z" fill="black"/>
<path d="M42.4023 117.943C43.0862 117.943 44.454 118.629 45.1379 118.629C44.454 118.629 43.7701 117.943 42.4023 117.943Z" fill="black"/>
<path d="M28.7241 111.086C28.7241 111.086 29.408 111.771 30.092 111.771C29.408 111.771 29.408 111.771 28.7241 111.086Z" fill="black"/>
<path d="M34.1954 115.2C34.8793 115.886 34.8793 115.886 34.1954 115.2Z" fill="black"/>
<path d="M84.8046 78.1715C85.4885 77.4858 85.4885 76.8001 85.4885 76.8001C84.8046 77.4858 84.8046 77.4858 84.8046 78.1715C84.1207 78.1715 84.1207 77.4858 84.8046 78.1715Z" fill="black"/>
<path d="M41.0345 86.4001C41.0345 86.4001 41.0345 85.7144 40.3506 85.7144C40.3506 85.7144 39.6667 85.7144 39.6667 85.0286C39.6667 85.0286 39.6667 85.0286 38.9828 84.3429C38.9828 84.3429 39.6667 85.0286 39.6667 85.7144C40.3506 85.7144 41.0345 85.7144 41.0345 86.4001Z" fill="black"/>
<path d="M30.7759 68.5714C30.7759 69.2572 30.7759 70.6286 30.7759 72C30.7759 71.3143 30.7759 69.9429 30.7759 68.5714Z" fill="black"/>
<path d="M77.2816 82.2857C76.5977 82.2857 76.5977 82.2857 75.9138 82.9715C76.5977 82.9715 76.5977 82.2857 77.2816 82.2857Z" fill="black"/>
<path d="M81.385 80.2287C80.7011 80.9144 80.0172 81.6001 78.6494 81.6001C79.3333 81.6001 80.0172 81.6001 81.385 80.2287Z" fill="black"/>
<path d="M75.9138 83.6572C75.2299 83.6572 75.2299 83.6572 75.9138 83.6572C75.2299 84.3429 75.2299 84.3429 75.9138 83.6572Z" fill="black"/>
<path d="M41.0345 88.4572C41.7184 89.1429 41.7184 89.1429 42.4023 89.8286C42.4023 89.8286 43.7701 90.5143 44.454 91.2L43.7701 90.5143C42.4023 89.8286 42.4023 89.1429 41.0345 88.4572Z" fill="black"/>
<path d="M31.4598 66.5143C31.4598 67.2 31.4598 67.8857 31.4598 68.5714C31.4598 68.5714 31.4598 67.2 31.4598 66.5143Z" fill="black"/>
<path d="M38.9828 87.0858C38.9828 86.4 37.6149 85.7143 37.6149 85.7143C37.6149 85.0286 38.2988 86.4 38.9828 87.0858Z" fill="black"/>
<path d="M74.546 83.6572C74.546 83.6572 73.8621 83.6572 73.8621 84.3429L74.546 83.6572Z" fill="black"/>
<path d="M33.5115 81.6001C33.5115 82.2858 34.1954 82.9715 34.8793 82.9715C34.8793 82.9715 34.1954 82.2858 33.5115 81.6001Z" fill="black"/>
<path d="M57.4483 87.0858H56.7644C56.0805 87.0858 56.7644 87.0858 57.4483 87.0858C56.7644 87.0858 56.7644 87.0858 57.4483 87.0858Z" fill="black"/>
<path d="M71.8103 85.7143C71.8103 85.7143 71.1264 85.7143 70.4425 85.7143C71.1264 85.7143 71.1264 85.7143 71.8103 85.7143Z" fill="black"/>
<path d="M29.4081 72.6858C29.4081 72.0001 29.4081 71.3143 29.4081 70.6286C28.7241 71.3143 29.4081 72.0001 29.4081 72.6858Z" fill="black"/>
<path d="M64.2874 86.4H64.9713C64.9713 86.4 64.9713 86.4 64.2874 86.4Z" fill="black"/>
<path d="M41.0345 87.0857C40.3506 86.4 40.3506 86.4 41.0345 87.0857Z" fill="black"/>
<path d="M47.1897 86.4C47.8736 86.4 47.8736 86.4 47.1897 86.4Z" fill="black"/>
<path d="M65.6552 86.4C65.6552 86.4 64.9713 86.4 64.2874 86.4C64.9713 87.0857 65.6552 87.0857 65.6552 86.4H66.3391C67.023 86.4 66.3391 86.4 65.6552 86.4Z" fill="black"/>
<path d="M34.8793 80.9143C34.8793 80.9143 35.5632 81.6001 35.5632 82.2858C35.5632 82.2858 35.5632 82.9715 36.2471 82.9715C36.2471 82.9715 36.2471 82.2858 35.5632 82.2858C35.5632 81.6001 35.5632 80.9143 34.8793 80.9143Z" fill="black"/>
<path d="M38.9828 85.0286C38.2989 84.3429 38.2989 84.3429 38.2989 83.6572C38.2989 84.3429 38.9828 85.0286 38.9828 85.0286Z" fill="black"/>
<path d="M49.2414 87.7715C49.2414 87.7715 48.5575 87.0858 47.8736 87.0858C48.5575 87.0858 48.5575 87.7715 49.2414 87.7715Z" fill="black"/>
<path d="M69.7586 85.0286C69.7586 85.0286 70.4425 85.0286 71.1264 85.0286C72.4943 85.0286 73.1782 84.3429 74.546 84.3429C73.1782 85.0286 72.4943 85.0286 71.1264 85.0286C70.4425 85.0286 70.4425 85.0286 69.7586 85.0286Z" fill="black"/>
<path d="M87.5402 70.6286C87.5402 69.9429 88.2241 69.9429 88.2241 69.2572C88.2241 69.9429 88.2241 70.6286 87.5402 70.6286Z" fill="black"/>
<path d="M30.7759 74.0572C30.7759 74.0572 30.7759 74.7429 30.7759 75.4286C31.4598 75.4286 30.7759 74.7429 30.7759 74.0572Z" fill="black"/>
<path d="M32.1437 78.8572C32.1437 78.1715 32.1437 78.1715 32.1437 78.8572Z" fill="black"/>
<path d="M35.5632 81.6C36.2471 81.6 36.2471 81.6 35.5632 81.6C36.2471 82.2857 36.2471 81.6 35.5632 81.6C35.5632 81.6 35.5632 80.9143 34.8793 80.2286C34.8793 80.2286 34.8793 79.5429 34.1954 79.5429C34.1954 79.5429 34.1954 79.5429 34.1954 78.8571V79.5429C34.8793 79.5429 35.5632 80.2286 35.5632 81.6Z" fill="black"/>
<path d="M87.5402 74.0572C87.5402 74.0572 87.5402 74.0572 88.2241 73.3715C88.2241 73.3715 87.5402 73.3715 87.5402 74.0572Z" fill="black"/>
<path d="M44.454 85.7143C44.454 86.4 44.454 86.4 44.454 85.7143C45.1379 86.4 44.454 86.4 44.454 85.7143Z" fill="black"/>
<path d="M43.0862 87.0858C43.7701 87.7715 44.454 87.7715 45.1379 88.4572C45.8218 88.4572 45.8218 89.1429 46.5057 89.1429C46.5057 89.1429 47.1896 89.8286 47.8736 89.8286L47.1897 89.1429C46.5057 89.1429 46.5057 88.4572 45.8218 88.4572C44.454 88.4572 44.454 87.7715 43.0862 87.0858C43.7701 87.0858 43.7701 87.0858 43.0862 87.0858Z" fill="black"/>
<path d="M30.7759 75.4286C30.7759 76.1143 30.7759 76.1143 30.7759 76.8001C30.7759 76.8001 30.7759 76.8 30.7759 77.4858V76.8001C31.4598 76.1143 31.4598 75.4286 30.7759 75.4286Z" fill="black"/>
<path d="M31.4598 76.8001C32.1437 77.4858 32.1437 77.4858 31.4598 76.8001Z" fill="black"/>
<path d="M42.4023 85.7143C43.0862 86.4 43.0862 86.4 43.0862 86.4C42.4023 86.4 42.4023 86.4 42.4023 85.7143Z" fill="black"/>
<path d="M34.8793 78.1714C34.8793 78.8571 34.8793 78.8571 34.8793 78.1714Z" fill="black"/>
<path d="M34.1954 75.4286V74.7429C33.5115 74.7429 33.5115 74.7429 34.1954 75.4286Z" fill="black"/>
<path d="M86.8563 73.3714C86.8563 72.6857 86.8563 72.6857 86.8563 73.3714Z" fill="black"/>
<path d="M87.5402 72C87.5402 72 87.5402 72.6857 86.8563 72.6857C86.8563 72 86.8563 72 87.5402 72Z" fill="black"/>
<path d="M31.4598 70.6286V69.9429C31.4598 69.9429 31.4598 69.9429 31.4598 70.6286Z" fill="black"/>
<path d="M30.0919 69.2572V68.5714C30.0919 68.5714 30.0919 68.5714 30.0919 69.2572Z" fill="black"/>
<path d="M76.5977 82.9714C76.5977 83.6571 76.5977 83.6571 76.5977 82.9714Z" fill="black"/>
<path d="M82.7529 78.1714C83.4368 78.1714 83.4368 78.1714 82.7529 78.1714Z" fill="black"/>
<path d="M88.908 67.8858C88.908 67.8858 88.908 67.8858 88.908 68.5715C88.908 68.5715 88.908 68.5715 88.908 67.8858Z" fill="black"/>
<path d="M80.0172 79.5429C79.3333 79.5429 79.3333 79.5429 80.0172 79.5429C79.3333 80.2286 79.3333 80.2286 80.0172 79.5429Z" fill="black"/>
<path d="M31.4598 63.7715C31.4598 63.7715 31.4598 65.1429 30.7759 65.1429C31.4598 65.1429 31.4598 64.4572 31.4598 63.7715Z" fill="black"/>
<path d="M32.8276 80.2286C32.8276 79.5429 32.8276 79.5429 32.8276 80.2286Z" fill="black"/>
<path d="M30.7759 73.3715V74.0572C30.7759 74.0572 30.7759 74.0572 30.7759 73.3715Z" fill="black"/>
<path d="M47.1897 87.0858C47.8736 87.0858 47.8736 87.0858 47.1897 87.0858Z" fill="black"/>
<path d="M84.8046 76.8001C84.1207 77.4858 84.1207 77.4858 84.8046 76.8001Z" fill="black"/>
<path d="M56.0805 88.4572C56.0805 89.1429 56.0805 89.1429 56.0805 88.4572C56.7644 88.4572 56.7644 88.4572 56.0805 88.4572Z" fill="black"/>
<path d="M66.3391 88.4572H67.023C67.023 88.4572 67.023 88.4572 66.3391 88.4572Z" fill="black"/>
<path d="M62.9195 88.4572C63.6034 88.4572 63.6034 88.4572 62.9195 88.4572Z" fill="black"/>
<path d="M118.316 66.5143C118.316 65.8286 118.316 65.1429 119 63.7714C119 64.4571 118.316 65.1429 118.316 66.5143C118.316 65.8286 118.316 65.8286 118.316 66.5143C118.316 65.8286 118.316 65.8286 118.316 65.8286V65.1429C118.316 64.4571 118.316 64.4571 119 63.0857C119 63.0857 119 63.7714 118.316 65.1429C118.316 65.1429 118.316 65.8286 118.316 66.5143C118.316 65.8286 117.632 67.2 117.632 67.8857C117.632 67.8857 117.632 67.8857 117.632 68.5714C117.632 69.2571 116.948 69.9429 116.948 71.3143C116.948 71.3143 116.264 72.6857 116.264 73.3714C116.264 74.0572 115.58 74.7429 115.58 74.7429C115.58 74.0571 115.58 74.0571 115.58 74.0571C115.58 74.7429 115.58 75.4286 114.897 76.1143C114.213 78.1714 114.213 78.1714 113.529 79.5429L112.845 80.9143C114.213 77.4857 115.58 74.7429 116.264 72C116.264 72 116.264 72 116.948 71.3143C116.948 70.6286 117.632 69.9429 117.632 68.5714C117.632 68.5714 117.632 69.2571 116.948 70.6286V71.3143L116.264 72.6857C116.264 72 116.264 72 116.948 71.3143C116.948 72 116.264 73.3714 115.58 74.7429C114.897 75.4286 114.213 77.4857 113.529 78.8571C112.845 80.2286 113.529 77.4857 113.529 77.4857C113.529 76.8 113.529 76.8 114.213 76.1143C114.897 74.7429 115.58 72.6857 115.58 72.6857C115.58 73.3714 114.897 74.0571 114.897 75.4286C114.897 74.7429 115.58 74.0571 115.58 72.6857C115.58 71.3143 115.58 72.6857 115.58 72C116.264 69.9429 116.264 69.9429 115.58 70.6286C114.897 72 114.897 74.0571 114.213 75.4286C114.213 76.1143 113.529 77.4857 113.529 77.4857C114.213 75.4286 113.529 77.4857 113.529 76.8C113.529 76.1143 114.213 75.4286 114.213 74.7429C114.897 72.6857 114.897 72 115.58 69.2571L114.897 71.3143C114.897 71.3143 113.529 75.4286 113.529 74.0571V73.3714C113.529 73.3714 114.213 69.9429 114.897 69.2571C114.897 69.2571 114.213 70.6286 114.213 72C113.529 74.0571 112.845 75.4286 112.161 77.4857C112.845 75.4286 113.529 74.0571 113.529 72C113.529 72 113.529 72 114.213 70.6286C114.213 69.9429 114.213 69.2571 114.213 70.6286C113.529 73.3714 112.161 76.1143 110.793 78.8571V78.1714C112.161 75.4286 113.529 72 114.213 68.5714C114.897 66.5143 115.58 63.7714 115.58 61.0286C115.58 61.0286 115.58 61.0286 114.897 61.0286C115.58 58.2857 115.58 55.5429 115.58 52.8C115.58 48 114.897 43.2 114.213 38.4C114.213 37.7143 114.213 37.7143 113.529 36.3429C113.529 35.6571 113.529 34.9715 112.845 34.9715L113.529 36.3429V37.7143C113.529 37.0286 113.529 38.4 113.529 38.4C113.529 39.0857 113.529 39.0857 113.529 39.7714C113.529 39.0857 113.529 39.0857 112.845 38.4C112.845 39.0857 112.845 39.0857 112.845 39.7714C112.845 40.4571 112.845 40.4571 112.845 41.1429C112.845 40.4571 112.845 39.7714 112.161 39.0857C112.161 37.7143 111.477 36.3429 110.793 34.9714C110.793 34.2857 110.793 34.2857 110.109 33.6C110.109 33.6 110.109 32.9143 109.425 32.9143C109.425 32.2286 108.741 31.5429 108.741 30.8571C108.741 30.8571 108.741 31.5429 109.425 32.2286C110.109 33.6 110.109 34.2857 110.793 35.6571C111.477 37.0286 111.477 38.4 112.161 39.7714C112.161 40.4571 112.845 41.8286 112.845 42.5143C112.845 43.2 112.845 43.8857 112.845 44.5714C112.845 45.2571 112.845 45.9429 112.845 45.9429C112.845 45.2571 112.845 45.2571 112.845 44.5714V43.8857C112.845 43.8857 112.845 43.2 112.845 42.5143C112.845 42.5143 112.845 43.2 112.845 43.8857C112.845 43.8857 112.845 44.5714 112.845 45.2571V45.9429C112.845 46.6286 112.845 46.6286 112.845 47.3143C112.845 48 112.845 48 112.845 48.6857C112.845 49.3714 112.845 49.3714 112.845 50.7429C112.845 51.4286 112.845 52.1143 112.845 52.8C112.845 52.8 112.845 52.8 112.845 51.4286C112.845 52.1143 112.845 52.8 112.845 52.8C112.845 49.3714 112.845 45.9429 112.161 43.2V42.5143C112.161 41.8286 111.477 40.4571 111.477 39.7714V38.4C110.109 34.2857 109.425 30.8571 107.374 27.4286C107.374 27.4286 106.69 26.7429 106.69 26.0571C106.69 26.0571 106.69 25.3714 106.006 24.6857C106.006 24.6857 105.322 24 105.322 23.3143C104.638 21.9429 103.954 21.2571 102.586 19.8857C103.27 20.5714 103.954 21.2571 103.27 21.2571C102.586 18.5143 100.534 16.4571 98.4827 14.4C98.4827 13.7143 97.7988 13.7143 97.1149 13.0286C97.1149 13.0286 97.1149 13.0286 96.431 12.3429C95.7471 11.6571 95.0632 10.9714 94.3793 10.2857C93.6954 9.6 92.3276 8.91429 91.6437 8.22857C89.5919 7.54286 88.908 6.17148 87.5402 5.48576C87.5402 5.48576 87.5402 5.48571 86.8563 5.48571C86.1724 4.8 84.1207 4.11429 82.7529 3.42857C82.7529 3.42857 81.385 2.74286 80.7011 2.74286C80.0172 2.74286 80.0172 2.74286 79.3333 2.05714C79.3333 2.05714 79.3333 2.05714 78.6494 2.05714C79.3333 2.74286 81.3851 3.42857 82.7529 4.11429C83.4368 4.11429 84.1207 4.8 84.1207 4.8C86.1724 5.48571 84.8046 5.48571 86.1724 6.17143C86.1724 6.17143 86.1724 6.17143 86.8563 6.85714C88.908 6.85714 90.2759 7.54286 90.9598 8.22857C91.6437 8.91429 91.6437 8.91434 92.3276 8.91434C92.3276 8.91434 91.6437 8.91429 92.3276 9.6L93.0115 10.2857C92.3276 9.6 93.0115 10.2857 92.3276 10.2857C90.9598 9.6 90.2759 8.91429 90.2759 8.91429C90.2759 8.91429 89.592 8.22857 88.908 7.54286C88.2241 7.54286 88.2241 6.85714 87.5402 6.85714C86.8563 6.85714 86.8563 6.17143 86.1724 6.17143C84.8046 5.48571 84.1207 4.8 82.7529 4.8C82.069 4.11429 81.385 4.11429 80.7011 3.42857C80.0172 2.74286 78.6494 2.74293 77.2816 2.05722C77.2816 2.05722 80.7011 3.42857 80.0172 3.42857C79.3333 3.42857 79.3333 3.42857 79.3333 3.42857C80.0172 3.42857 80.7011 4.11429 81.385 4.11429H82.069C82.069 4.11429 82.7529 4.11429 82.7529 4.8C84.1207 5.48571 85.4885 6.17143 86.1724 6.85714C85.4885 6.85714 85.4885 6.17143 84.8046 6.17143L86.1724 6.85714C86.1724 6.85714 86.1724 6.85714 85.4885 6.85714C84.8046 6.17143 84.8046 6.17143 84.1207 6.17143C83.4368 6.17143 84.1207 6.17143 84.8046 6.17143C86.1724 7.54286 86.8563 7.54286 87.5402 8.22857C88.2241 8.91429 88.2241 8.91429 88.908 8.91429C89.592 9.6 90.2759 9.6 90.9598 10.2857C90.2759 9.6 90.2759 9.6 88.908 8.91429C88.908 8.22857 88.2241 8.22857 87.5402 7.54286C86.8563 7.54286 86.8563 6.85714 87.5402 7.54286C88.2241 8.22857 88.908 8.22857 88.908 8.22857C88.908 8.22857 88.908 8.22857 89.5919 8.22857C89.5919 8.22857 90.2759 8.91429 90.9598 8.91429C92.3276 10.2857 93.6954 10.9714 95.0632 12.3429C95.7471 13.7143 96.431 14.4 97.1149 15.0857C97.7988 15.7714 99.1667 17.1429 99.1667 17.1429C99.1667 17.8286 99.8506 17.8286 99.8506 18.5143C99.8506 18.5143 99.8506 18.5143 100.534 19.2C100.534 19.2 100.534 19.2 100.534 19.8857C99.8506 19.2 99.8506 19.2 99.1667 18.5143C98.4828 17.8286 98.4827 17.8286 98.4827 17.8286L97.7988 17.1429C97.1149 15.7714 96.431 15.0857 95.7471 14.4C95.0632 13.7143 95.0632 13.7143 94.3793 13.0286C94.3793 13.0286 93.6954 13.0286 93.6954 12.3429C93.0115 12.3429 93.0115 11.6571 92.3276 11.6571C91.6437 10.9714 88.908 8.91429 86.8563 7.54286C85.4885 6.85714 84.8046 6.17143 83.4368 5.48571C82.7529 5.48571 82.069 4.8 81.385 4.11429C81.385 4.11429 81.3851 4.11429 80.0172 3.42857C78.6494 2.74286 79.3333 3.42857 79.3333 3.42857C79.3333 3.42857 78.6494 3.42865 77.9655 2.74293C78.6494 2.74293 79.3333 3.42857 80.0172 4.11429C79.3333 4.11429 79.3333 4.11429 80.0172 4.11429C81.3851 4.8 81.3851 4.8 82.7529 5.48571C82.7529 5.48571 82.069 5.48571 83.4368 6.17143C82.069 5.48571 80.7011 4.8 78.6494 4.11429C78.6494 4.11429 77.9655 4.11429 77.9655 3.42857H77.2816C75.9138 2.74286 75.2299 2.74286 74.546 2.74286C73.8621 2.74286 73.1782 2.05714 72.4942 2.05714C71.8103 2.05714 73.8621 2.05718 73.8621 2.74289L73.1782 2.74286C73.8621 2.74286 75.9138 3.4286 76.5977 3.4286C78.6494 4.11432 78.6494 4.11429 76.5977 4.11429C75.9138 4.11429 75.9138 3.42857 75.2299 3.42857C74.546 3.42857 75.2299 3.42857 75.9138 3.42857C73.8621 2.74286 72.4942 2.74286 71.1264 2.05714H71.8103C70.4425 1.37143 67.023 1.37143 65.6552 0.685714C64.9713 0.685714 63.6034 0.685714 62.9195 0C62.2356 0 62.2356 0 61.5517 0H60.8678C61.5517 0 61.5517 0 63.6034 0C64.2874 0 64.2874 0 65.6552 0C67.023 0 67.023 0.685714 69.0747 0.685714C69.7586 0.685714 70.4425 0.685714 71.1264 1.37143C71.8103 1.37143 72.4942 1.37143 73.1782 2.05714C72.4942 2.05714 71.8103 2.05714 71.1264 1.37143C72.4942 1.37143 73.1782 2.05714 73.8621 2.05714C74.546 2.05714 75.9138 2.74286 76.5977 2.74286H77.2816C78.6494 3.42857 79.3333 3.42857 80.7011 4.11429C81.385 4.11429 81.3851 4.8 82.069 4.8C82.069 4.8 83.4368 5.48571 84.1207 5.48571C84.8046 5.48571 84.8046 6.17143 85.4885 6.17143C86.1724 6.17143 86.8563 6.85714 86.1724 6.85714C82.7529 8.91429 82.069 8.22857 80.0172 7.54286C77.2816 6.17143 73.8621 4.8 70.4425 4.11429C70.4425 4.11429 69.7586 4.11429 69.0747 4.11429H68.3908C66.3391 3.42857 64.9713 2.74286 62.9195 2.74286C60.8678 2.74286 58.8161 2.05714 56.7644 2.05714C56.7644 2.05714 55.3965 2.05716 54.7126 2.05716L55.3965 2.05714C55.3965 2.05714 54.7126 2.05714 54.0287 2.05714C53.3448 2.05714 53.3448 2.05716 52.6609 2.05716C54.0287 2.05716 54.7126 2.05714 56.0805 2.05714C56.7644 2.05714 57.4483 2.05716 57.4483 2.05716C58.8161 2.05716 60.8678 2.74286 62.2356 2.74286C61.5517 2.74286 60.8678 2.74286 60.8678 2.74286C60.1839 2.74286 58.8161 2.74286 57.4483 2.74286C56.0805 2.74286 55.3966 2.74286 54.7126 2.74286H54.0287C53.3448 2.74286 53.3448 2.74286 54.0287 2.74286C54.7126 2.74286 54.7126 2.74286 55.3965 2.05714C54.0287 2.05714 52.6609 2.05714 51.2931 2.05714C51.977 2.05714 51.977 2.05714 51.977 2.05714C51.2931 2.05714 49.2414 2.05714 49.9253 2.74286C50.6092 2.74286 50.6092 2.74286 49.2414 3.42857C50.6092 3.42857 51.2931 3.42857 52.6609 2.74286C52.6609 2.74286 52.6609 2.74286 51.977 2.74286C51.2931 2.74286 51.977 2.74286 52.6609 2.74286C52.6609 2.74286 52.6609 2.74286 53.3448 2.74286C54.0287 2.74286 54.0287 2.74286 53.3448 2.74286C52.6609 2.74286 54.0287 2.74286 54.0287 2.74286C53.3448 2.74286 53.3448 2.74286 52.6609 2.74286C51.977 2.74286 50.6092 2.74286 49.9253 2.74286C49.9253 2.74286 49.2414 2.74286 48.5575 2.74286H47.8736H46.5057H45.8218C45.8218 2.74286 45.8218 2.74286 46.5057 2.74286C47.1897 2.74286 47.1897 2.74286 47.8736 2.74286C49.9253 2.74286 51.2931 2.74286 53.3448 2.74286C54.7126 2.74286 56.7644 2.74286 58.8161 2.74286C59.5 2.74286 60.1839 2.74286 61.5517 2.74286C62.2356 2.74286 62.9195 2.74286 64.2873 3.42857C62.9195 3.42857 62.2356 3.42857 60.1839 3.42857C58.8161 3.42857 56.7644 3.42857 55.3965 3.42857C53.3448 3.42857 51.977 3.42857 49.2414 3.42857C47.8736 3.42857 46.5057 4.11429 45.1379 4.11429C45.1379 4.11429 45.8218 4.11429 47.1897 4.11429C47.8736 4.11429 48.5575 4.11429 48.5575 4.11429C48.5575 4.11429 47.8736 4.11429 47.1897 4.8C47.1897 4.8 46.5057 4.8 45.8218 4.8C45.8218 4.8 45.8218 4.8 44.454 4.8C44.454 4.8 44.454 4.8 43.7701 4.8C43.0862 4.8 43.0862 4.80003 42.4023 5.48575C41.7184 5.48575 41.7184 5.48571 40.3506 6.17143H41.0345C41.7184 6.17143 43.0862 6.17146 43.7701 5.48575C44.454 5.48575 44.454 5.48571 45.1379 5.48571C45.1379 5.48571 45.8218 5.48571 46.5057 5.48571H47.1897C46.5057 5.48571 47.8736 5.48571 47.8736 5.48571C49.2414 6.85714 47.8736 6.85716 47.8736 7.54288C47.8736 7.54288 48.5575 7.54286 49.2414 7.54286C49.9253 7.54286 49.9253 7.54286 50.6092 7.54286C51.2931 7.54286 51.977 7.54286 54.0287 7.54286C54.0287 7.54286 56.0805 7.54286 56.7644 7.54286C58.1322 6.85714 60.1839 7.54286 61.5517 7.54286C62.2356 7.54286 62.9195 7.54286 64.2873 7.54286C63.6034 7.54286 62.9195 7.54286 62.2356 7.54286C61.5517 7.54286 61.5517 7.54286 60.8678 7.54286C62.9195 7.54286 62.9195 7.54286 64.2873 7.54286C64.9713 7.54286 64.9713 7.54286 65.6552 7.54286C65.6552 7.54286 65.6552 7.54286 66.3391 7.54286C67.023 7.54286 67.023 7.54286 67.023 7.54286C67.7069 7.54286 68.3908 8.22857 69.0747 8.22857H67.7069C66.3391 8.22857 65.6552 8.22857 65.6552 7.54286H64.2873H63.6034C61.5517 7.54286 60.1839 7.54286 58.8161 7.54286C58.8161 7.54286 58.8161 7.54286 59.5 7.54286C58.1322 7.54286 57.4483 7.54286 56.7644 7.54286C56.7644 7.54286 56.0805 7.54286 54.7126 7.54286C54.0287 7.54286 55.3965 7.54286 55.3965 7.54286C57.4483 7.54286 60.1839 7.54286 62.9195 8.22857C63.6034 8.22857 65.6552 8.91429 65.6552 8.91429C62.9195 8.22857 60.1839 8.22857 57.4483 8.22857C54.7126 7.54286 51.2931 7.54286 47.8736 8.22857C47.1897 8.22857 46.5057 8.22857 45.8218 8.22857C44.454 8.22857 42.4023 8.91429 41.0345 9.6C41.0345 9.6 42.4023 9.6 41.7184 9.6C40.3506 9.6 38.9828 9.60001 38.2989 10.2857C37.6149 10.2857 36.931 10.2857 34.8793 11.6571C33.5115 11.6571 33.5115 11.6571 32.1437 12.3429C30.7759 13.0286 29.408 13.7143 28.0402 14.4C28.7241 13.7143 29.408 13.7143 30.092 13.7143C30.7759 13.7143 30.7759 13.7143 32.1437 13.0286C32.1437 13.0286 31.4598 13.0286 30.7759 13.7143C29.408 13.7143 28.7241 13.7143 28.0402 14.4C27.3563 14.4 27.3563 14.4 26.6724 15.0857L27.3563 14.4C25.9885 15.0857 23.2529 17.1429 22.569 17.1429C21.8851 17.8286 21.2011 18.5143 20.5172 19.2C20.5172 19.2 19.8333 19.2 19.1494 20.5715C17.7816 20.5715 16.4138 22.6286 15.046 24C14.3621 24.6857 13.6782 25.3714 13.6782 25.3714C12.9943 26.0571 13.6782 25.3714 13.6782 24.6857C13.6782 24.6857 14.3621 24 15.046 23.3143L13.6782 24.6857C12.3103 26.0571 10.2586 28.1143 8.8908 30.1714C8.20689 30.8571 8.20689 30.8571 7.52299 32.9143C8.20689 32.2286 8.20689 31.5429 8.8908 30.8571C9.57471 29.4857 10.2586 28.1143 11.6264 27.4286C11.6264 28.1143 12.3103 26.7429 12.9943 26.0571C12.9943 26.0571 13.6782 25.3714 14.3621 24.6857C14.3621 24.6857 15.046 24 15.7299 23.3143C17.0977 21.9429 18.4655 20.5715 17.7816 21.9429C17.7816 22.6286 18.4655 21.9429 19.1494 21.2572C19.8333 19.8857 19.8333 19.8857 20.5172 19.2L21.2011 18.5143C21.2011 18.5143 21.2011 18.5143 21.8851 17.8286C21.8851 17.8286 21.8851 17.8286 21.2011 17.8286C20.5172 17.8286 20.5172 18.5143 19.8333 18.5143C20.5172 19.2 20.5172 19.2 21.2011 18.5143C21.8851 17.8286 21.8851 18.5143 21.8851 17.8286C24.6207 16.4571 26.6724 15.0857 29.408 13.7143C28.7241 14.4 28.0402 14.4 27.3563 15.0857C25.9885 15.7714 24.6207 16.4571 23.2529 17.8286C23.2529 17.8286 23.2529 17.8286 22.569 18.5143C22.569 18.5143 21.2011 19.8857 22.569 19.2C23.2529 18.5143 23.9368 17.8286 23.9368 17.8286C24.6207 17.1429 25.9885 16.4571 26.6724 15.7714C27.3563 15.7714 27.3563 15.0858 28.0402 15.0858C29.408 14.4 30.092 13.7143 30.7759 13.0286C31.4598 13.0286 30.7759 13.7143 31.4598 13.0286C32.8276 13.0286 34.8793 11.6571 36.2471 11.6571C36.931 11.6571 36.931 11.6571 37.6149 10.9714C38.9828 10.2857 39.6667 10.2857 41.0345 10.2857C42.4023 9.6 43.0862 9.6 45.1379 9.6C45.8218 9.6 46.5057 9.6 47.8736 9.6C49.2414 9.6 51.977 9.6 53.3448 9.6C54.0287 9.6 54.0287 9.6 54.7126 9.6H54.0287C52.6609 9.6 50.6092 9.6 49.2414 9.6C47.1897 9.6 45.1379 10.2857 43.0862 10.2857C41.0345 10.2857 38.9828 10.9714 36.931 11.6571C34.1954 13.0286 30.7759 14.4 28.7241 15.0857C28.0402 15.7714 26.6724 16.4571 25.9885 16.4571C24.6207 17.8286 21.8851 19.2 20.5172 20.5714C20.5172 20.5714 19.1494 21.2571 18.4655 22.6286C18.4655 22.6286 19.8333 21.9429 20.5172 21.2571C20.5172 21.9429 19.8333 21.9429 18.4655 23.3143C19.1494 23.3143 19.1494 23.3143 19.8333 21.9429C19.8333 21.2571 19.1494 21.9429 20.5172 21.2571C21.8851 20.5714 21.2011 20.5714 21.8851 19.8857L20.5172 21.2571C20.5172 21.2571 20.5172 21.2571 19.8333 21.9429C19.8333 22.6286 19.1494 23.3143 19.1494 23.3143C18.4655 24 17.7816 24.6857 17.0977 24.6857C15.7299 26.0571 14.3621 28.1143 12.3103 30.1714C14.3621 28.1143 15.046 27.4286 17.0977 25.3714C17.7816 24.6857 18.4655 24.6857 18.4655 24C19.1494 23.3143 19.1494 23.3143 19.8333 22.6286C19.1494 23.3143 19.8333 22.6286 19.8333 23.3143C19.1494 24 18.4655 24.6857 17.7816 24.6857C15.046 27.4286 12.9943 30.1714 10.2586 33.6C10.2586 33.6 9.57471 34.2857 9.57471 34.9714C9.57471 35.6571 8.8908 36.3429 8.20689 37.0286C8.20689 37.0286 8.20689 37.0286 8.20689 37.7143C7.52299 38.4 6.83908 39.0857 6.83908 39.7714C6.15517 40.4571 6.15517 40.4571 4.78735 42.5143C4.10345 45.2571 3.41954 46.6286 3.41954 45.9429V45.2571C3.41954 46.6286 2.73563 48 2.73563 49.3714C2.73563 50.0571 2.73563 50.0571 2.05172 50.7429V51.4286C2.05172 52.8 1.36781 53.4857 1.36781 54.8571C1.36781 55.5429 1.36781 56.2286 0.683907 57.6C0.683907 57.6 0.683906 56.2286 1.36781 55.5429C1.36781 55.5429 1.36781 55.5429 1.36781 56.2286V56.9143C1.36781 57.6 1.36781 57.6 0.683907 58.9714C0.683907 58.9714 0.683906 58.2857 1.36781 56.9143C1.36781 56.2286 1.36781 55.5429 2.05172 54.8571C2.05172 54.8571 2.05172 54.1714 2.73563 53.4857C2.73563 53.4857 2.73563 53.4857 2.73563 52.8C2.73563 52.1143 3.41954 51.4286 3.41954 50.0571C3.41954 50.0571 4.10345 48.6857 4.10345 48C4.10345 47.3143 4.78735 46.6286 4.78735 46.6286C4.78735 47.3143 4.78735 47.3143 4.78735 47.3143C4.78735 46.6286 4.78735 45.9429 5.47126 45.9429C4.78735 43.8857 4.78735 43.8857 6.15517 41.8286L6.83908 40.4571C5.47126 43.2 4.10345 46.6286 3.41954 48.6857C3.41954 48.6857 3.41954 48.6857 2.73563 49.3714C2.73563 50.0571 2.05172 50.7429 2.05172 52.1143C2.05172 52.1143 2.05172 51.4286 2.73563 50.0571V49.3714L3.41954 48C3.41954 48.6857 3.41954 48.6857 2.73563 49.3714C2.73563 48.6857 3.41954 47.3143 4.10345 45.9429C4.78736 45.2571 5.47126 43.8857 6.15517 41.8286C6.83908 40.4571 6.15517 43.2 6.15517 43.2C6.15517 43.8857 6.15517 43.8857 5.47126 44.5714C5.47126 46.6286 4.78736 48 4.10345 48.6857C4.10345 48 4.78735 47.3143 4.78735 45.9429C4.78735 46.6286 4.10345 47.3143 4.10345 48.6857C4.10345 50.0571 4.10345 48.6857 4.10345 49.3714C3.41954 51.4286 3.41954 51.4286 4.10345 50.7429C4.78736 49.3714 4.78735 47.3143 5.47126 45.9429C5.47126 45.2571 6.15517 43.8857 6.15517 43.8857C5.47126 45.9429 6.15517 43.8857 6.15517 44.5714C6.15517 45.2571 5.47126 45.9429 5.47126 46.6286C4.78735 49.3714 4.78736 50.0571 4.10345 52.8L4.78735 50.7429C4.78735 50.7429 6.15517 46.6286 6.15517 48V48.6857C6.15517 48.6857 5.47126 52.1143 4.78735 52.8C4.78735 52.8 5.47126 51.4286 5.47126 50.0571C5.47126 49.3714 6.15517 47.3143 6.83908 45.2571C6.15517 47.3143 6.15517 49.3714 5.47126 51.4286C5.47126 51.4286 5.47126 51.4286 4.78735 52.8C4.78735 54.1714 4.78735 53.4857 4.78735 52.8C5.47126 50.0571 6.83908 47.3143 8.20689 44.5714V45.2571C7.52299 47.3143 6.15517 50.7429 5.47126 54.1714C4.78735 56.2286 4.10345 58.2857 4.10345 61.7143C4.10345 61.7143 4.10345 61.7143 4.78735 61.7143C4.10345 64.4571 4.10345 67.2 4.10345 69.9429C4.10345 74.7429 4.78735 79.5429 5.47126 84.3429C5.47126 85.0286 5.47127 85.0286 6.15517 86.4C6.15517 87.0858 6.15517 87.7714 6.83908 87.7714L6.15517 86.4V85.7144V85.0287C6.15517 85.7144 6.15517 84.3429 6.15517 84.3429C6.15517 83.6571 6.15517 83.6571 6.15517 82.9714C6.15517 83.6571 6.15517 83.6571 6.83908 84.3429C6.83908 83.6571 6.83908 83.6571 6.83908 82.9714C6.83908 82.2857 6.83908 82.2857 6.83908 81.6C6.83908 82.2857 6.83908 82.9714 7.52299 83.6572C7.52299 85.0286 8.20689 86.4 8.8908 87.7714C8.8908 88.4571 8.8908 88.4571 9.57471 89.1429C9.57471 89.1429 9.57471 89.8286 10.2586 89.8286C10.2586 90.5143 10.9425 91.2 10.9425 91.8857C10.9425 91.8857 10.9425 91.2 10.2586 90.5143C9.57471 89.1429 9.57471 88.4572 8.8908 87.0857C6.83908 85.7143 6.15517 84.3429 5.47126 82.9714C5.47126 82.2857 4.78735 80.9143 4.78735 80.2286C4.78735 79.5429 4.78735 78.8571 4.78735 78.1714C4.78735 77.4857 4.78735 76.8 4.78735 76.8C4.78735 77.4857 4.78735 77.4857 4.78735 78.1714V78.8571C4.78735 78.8571 4.78735 79.5429 4.78735 80.2286C4.78735 80.2286 4.78735 79.5429 4.78735 78.8571C4.78735 78.8571 4.78735 78.1714 4.78735 77.4857V76.8C4.78735 76.1143 4.78735 76.1143 4.78735 75.4286C4.78735 74.7429 4.78735 74.7429 4.78735 74.0571C4.78735 73.3714 4.78735 73.3714 4.78735 72C4.78735 71.3143 4.78735 70.6286 4.78735 69.9429C4.78735 69.9429 4.78735 69.9429 4.78735 71.3143C4.78735 70.6286 4.78735 69.9429 4.78735 69.9429C4.78735 73.3714 4.78735 76.8 5.47126 79.5429V80.2286C5.47126 80.9143 6.15517 82.2857 6.15517 82.9714V84.3429C7.52299 88.4571 8.2069 91.8857 10.2586 95.3143C10.2586 95.3143 10.9425 96 10.9425 96.6857C10.9425 96.6857 10.9425 97.3714 11.6264 98.0571C11.6264 98.0571 12.3103 98.7429 12.3103 99.4286C12.9943 100.8 13.6782 101.486 15.046 102.857C14.3621 102.171 13.6782 101.486 14.3621 101.486C16.4138 103.543 17.7816 105.6 19.8333 107.657C19.8333 108.343 20.5172 108.343 21.2011 109.029C21.2011 109.029 21.2011 109.029 21.8851 109.714C22.569 110.4 23.2529 111.086 23.9368 111.771C24.6207 112.457 25.9885 113.143 26.6724 113.829C28.0402 114.514 29.408 115.886 30.092 115.886C30.092 115.886 30.092 115.886 30.7759 115.886C31.4598 116.571 33.5115 117.257 34.8793 117.943C34.8793 117.943 36.2471 118.629 36.931 118.629C37.6149 118.629 37.6149 118.629 38.2988 119.314C38.2988 119.314 38.2988 119.314 38.9828 119.314C38.2988 118.629 36.2471 117.943 34.8793 117.257L34.1954 116.571C32.1437 115.886 33.5115 115.886 32.1437 115.2C32.1437 115.2 32.1437 115.2 31.4598 114.514C30.7759 113.829 29.408 113.143 28.7241 113.143C28.0402 112.457 27.3563 112.457 27.3563 112.457C27.3563 112.457 28.0402 112.457 27.3563 111.771L26.6724 111.086C27.3563 111.771 27.3563 111.086 27.3563 111.086C28.7241 111.771 29.408 112.457 29.408 112.457C29.408 112.457 30.092 113.143 30.7759 113.829C31.4598 113.829 31.4598 114.514 32.1437 114.514C32.8276 114.514 32.8276 115.2 33.5115 115.2C34.1954 115.886 34.8793 116.571 36.2471 117.257C36.931 117.943 37.6149 117.943 38.2988 118.629C39.6667 119.314 40.3506 119.314 41.7184 120C41.7184 120 38.2988 118.629 38.9828 118.629C39.6667 118.629 39.6667 118.629 39.6667 118.629C38.2989 117.257 37.6149 117.257 36.931 117.257H36.2471C36.2471 117.257 35.5632 117.257 35.5632 116.571C34.1954 115.886 32.8276 115.2 32.1437 114.514C32.8276 114.514 32.8276 115.2 33.5115 115.2L32.1437 114.514C32.1437 114.514 32.1437 114.514 32.8276 114.514C33.5115 114.514 34.1954 114.514 34.1954 114.514C34.8793 114.514 34.1954 114.514 33.5115 114.514C32.8276 113.829 32.1437 113.829 31.4598 113.143C30.7759 112.457 30.7759 112.457 30.092 112.457C29.408 111.771 28.7241 111.771 28.0402 111.086C28.7241 111.771 28.7241 111.771 30.092 112.457C30.7759 113.143 31.4598 113.143 31.4598 113.829C32.1437 114.514 32.1437 113.829 31.4598 113.829C30.7759 113.143 30.092 113.143 30.092 113.143C30.092 113.143 30.092 113.143 29.408 113.143C29.408 113.143 28.7241 112.457 28.0402 112.457C26.6724 111.086 25.3046 110.4 23.9368 109.029C23.2529 108.343 22.569 107.657 21.8851 106.971C21.2011 106.286 19.8333 104.914 19.8333 104.914C19.8333 104.229 19.1494 104.229 19.1494 103.543C19.1494 103.543 19.1494 103.543 18.4655 102.857C18.4655 102.857 18.4655 102.857 18.4655 102.171C19.1494 102.857 19.1494 102.857 19.8333 103.543C19.8333 103.543 19.8333 103.543 20.5172 104.229L21.2011 104.914C21.8851 105.6 21.8851 106.286 23.2529 106.971C23.9368 107.657 23.9368 107.657 24.6207 108.343C24.6207 108.343 25.3046 108.343 25.3046 109.029C25.9885 109.029 25.9885 109.714 26.6724 109.714C28.0402 111.086 30.7759 112.457 32.8276 113.829C34.1954 114.514 34.8793 115.2 36.2471 115.886C36.931 115.886 37.6149 116.571 38.2988 117.257C38.2988 117.257 38.2989 117.257 39.6667 117.943C41.0345 118.629 40.3506 117.943 40.3506 117.943C40.3506 117.943 41.0345 117.943 41.7184 118.629C41.0345 117.257 39.6667 117.257 38.9828 116.571C39.6667 116.571 39.6667 116.571 38.9828 116.571C37.6149 115.886 37.6149 115.886 36.2471 115.2C36.2471 115.2 36.931 115.2 35.5632 114.514C36.931 115.2 38.2989 115.886 40.3506 116.571C40.3506 117.257 41.0345 117.257 41.0345 117.257H41.7184C43.0862 117.943 43.7701 117.943 44.454 117.943C45.1379 117.943 45.8218 118.629 46.5057 118.629C47.1897 118.629 45.1379 118.629 45.1379 117.943H45.8218C45.1379 117.943 43.0862 117.257 42.4023 117.257C40.3506 116.571 40.3506 116.571 42.4023 116.571C43.0862 116.571 43.0862 117.257 43.7701 117.257C44.454 117.257 43.7701 117.257 43.0862 117.257C45.8218 117.257 47.8736 117.257 49.2414 117.943H48.5575C49.9253 118.629 53.3448 118.629 54.7126 119.314C55.3966 119.314 56.7644 119.314 57.4483 120C58.1322 120 58.1322 120 58.8161 120H59.5C58.8161 120 58.8161 120 56.7644 120C56.0805 120 56.0805 120 54.7126 120C53.3448 120 53.3448 119.314 51.2931 119.314C50.6092 119.314 49.9253 119.314 49.2414 118.629C48.5575 118.629 47.8736 118.629 47.1897 117.943C47.8736 117.943 48.5575 117.943 49.2414 118.629C48.5575 117.257 48.5575 117.257 47.1897 117.257C46.5057 117.257 45.1379 116.571 44.454 116.571H43.7701C42.4023 115.886 41.7184 115.886 40.3506 115.2C39.6667 115.2 39.6667 114.514 38.9828 114.514C38.9828 114.514 37.6149 113.829 36.931 113.829C36.2471 113.829 36.2471 113.143 35.5632 113.143C34.8793 113.143 34.1954 112.457 34.8793 112.457C36.2471 113.143 37.6149 113.829 39.6667 114.514C42.4023 115.886 45.8218 117.257 49.2414 117.943C49.2414 117.943 49.9253 117.943 50.6092 117.943H51.2931C53.3448 118.629 54.7126 118.629 56.7644 118.629C58.8161 118.629 60.8678 119.314 62.9195 119.314C62.9195 119.314 64.2874 119.314 64.9713 119.314L64.2873 119.314C64.2873 119.314 64.9713 119.314 65.6552 119.314C66.3391 119.314 66.3391 119.314 67.023 119.314C65.6552 119.314 64.9713 119.314 63.6034 119.314C62.9195 119.314 62.2356 119.314 62.2356 119.314C60.8678 119.314 58.8161 118.629 57.4483 118.629C58.1322 118.629 58.8161 118.629 58.8161 118.629C59.5 118.629 60.8678 118.629 62.2356 118.629C63.6034 118.629 64.2874 118.629 64.9713 118.629H65.6552C66.3391 118.629 66.3391 118.629 65.6552 118.629C64.9713 118.629 64.9713 118.629 64.2873 119.314C65.6552 119.314 67.023 119.314 68.3908 119.314C67.7069 119.314 67.7069 119.314 67.7069 119.314C68.3908 119.314 70.4425 119.314 69.7586 118.629C68.3908 117.257 68.3908 117.257 69.7586 117.257C68.3908 117.257 67.023 117.257 65.6552 117.257C66.3391 117.257 65.6552 117.257 64.9713 117.257C64.9713 117.257 64.9713 117.257 64.2873 117.257C63.6034 117.257 63.6034 117.257 64.2873 117.257C64.9713 117.257 63.6034 117.257 63.6034 117.257C64.2874 117.257 64.2874 117.257 64.9713 117.257C65.6552 117.257 67.023 117.257 67.7069 117.257C67.7069 117.257 68.3908 117.257 69.0747 117.257H69.7586H71.1264H71.8103C71.8103 117.257 71.8103 117.257 71.1264 117.257C70.4425 117.257 70.4425 117.257 69.7586 117.257C67.7069 117.257 66.3391 117.257 64.2873 117.257C62.9195 117.257 60.8678 117.257 58.8161 117.257C58.1322 117.257 57.4483 117.257 56.0805 117.257C55.3965 117.257 54.7126 117.257 53.3448 116.571C54.7126 116.571 55.3965 116.571 57.4483 116.571C58.8161 116.571 60.8678 116.571 62.2356 116.571C64.2874 116.571 65.6552 116.571 68.3908 116.571C69.7586 116.571 71.1264 115.886 72.4942 115.886C72.4942 115.886 71.8103 115.886 70.4425 115.886C69.7586 115.886 69.0747 115.886 69.0747 115.886C69.0747 115.886 69.7586 115.886 70.4425 115.2C70.4425 115.2 71.1264 115.2 71.8103 115.2C71.8103 115.2 71.8103 115.2 73.1782 115.2C73.1782 115.2 73.1782 115.2 73.8621 115.2C74.546 115.2 74.546 115.2 75.2299 114.514C75.9138 114.514 75.9138 114.514 77.2816 113.829H76.5977C75.9138 113.829 74.546 113.829 73.8621 114.514C73.1782 114.514 73.1782 114.514 72.4942 114.514C72.4942 114.514 71.8103 114.514 71.1264 114.514H70.4425C71.1264 114.514 69.7586 114.514 69.7586 114.514C70.4425 114.514 71.1264 114.514 71.8103 113.829C71.8103 113.829 71.1264 113.829 70.4425 113.829C69.7586 113.829 69.7586 113.829 69.0747 113.829C68.3908 113.829 67.7069 113.829 65.6552 113.829C65.6552 113.829 63.6034 113.829 62.9195 113.829C60.8678 113.829 59.5 113.829 58.1322 113.143C57.4483 113.143 56.7644 113.143 55.3965 113.143C56.0805 113.143 56.7644 113.143 57.4483 113.829C58.1322 113.829 58.1322 113.829 58.8161 113.829C56.7644 113.829 56.7644 113.829 55.3965 113.143C54.7126 113.143 54.7126 113.143 54.0287 113.143C54.0287 113.143 54.0287 113.143 53.3448 113.143C52.6609 113.143 52.6609 113.143 52.6609 113.143C51.977 113.143 51.2931 112.457 50.6092 112.457H51.977C53.3448 112.457 54.0287 112.457 54.0287 113.143H55.3965H56.0805C57.4483 113.143 58.8161 113.829 60.1839 113.829C60.1839 113.829 60.1839 113.829 59.5 113.829C60.1839 113.829 61.5517 113.829 61.5517 113.829C61.5517 113.829 62.2356 113.829 63.6034 113.829H64.2873C64.9713 113.829 63.6034 113.829 63.6034 113.829C61.5517 113.829 58.8161 113.829 56.0805 113.143C55.3965 113.143 53.3448 112.457 53.3448 112.457C56.0805 113.143 58.8161 113.143 61.5517 113.143C64.2874 113.143 67.7069 113.143 71.1264 113.143C71.8103 113.143 72.4943 113.143 73.1782 113.143C74.546 113.143 76.5977 112.457 78.6494 112.457C78.6494 112.457 77.2816 112.457 77.9655 112.457C79.3333 111.771 80.7011 111.771 81.385 111.771C82.069 111.771 82.7529 111.771 84.8046 110.4C86.1724 109.714 86.8563 109.714 87.5402 109.029C88.908 108.343 90.2759 107.657 91.6437 106.971C90.9598 107.657 90.2759 107.657 89.5919 107.657C88.908 107.657 88.908 107.657 87.5402 108.343C87.5402 108.343 88.2241 108.343 88.908 107.657C89.592 107.657 90.2759 106.971 90.9598 106.286C92.3276 105.6 95.0632 104.229 95.7471 103.543C96.431 102.857 97.1149 102.857 97.7988 102.171C97.7988 102.171 98.4828 102.171 99.1667 100.8C99.8506 100.114 101.902 98.7429 103.27 96.6857C103.954 96 103.954 96 104.638 95.3143C105.322 94.6286 104.638 95.3143 104.638 96C104.638 96 103.954 96.6857 103.27 97.3714L103.954 96.6857L104.638 96C106.006 95.3143 107.374 93.2571 108.741 91.2C109.425 90.5143 109.425 90.5143 110.793 88.4571C110.109 89.1429 110.109 89.8286 109.425 90.5143C108.741 91.8858 107.374 92.5715 106.69 93.9429C106.69 93.2572 106.006 94.6286 105.322 95.3143C105.322 95.3143 104.638 96 103.954 96.6857C103.954 96.6857 103.27 97.3714 102.586 98.0572C101.218 99.4286 99.8506 100.8 100.534 99.4286C100.534 98.7429 99.8506 99.4286 99.1667 100.114C98.4828 100.8 97.7988 100.8 97.1149 101.486L96.431 102.171C96.431 102.171 96.431 102.171 95.7471 102.857C95.7471 102.857 95.7471 102.857 96.431 102.857C97.1149 102.857 97.1149 102.171 97.7988 102.171C98.4828 101.486 98.4828 101.486 97.7988 102.171C97.1149 102.857 97.1149 102.171 97.1149 102.857C94.3793 104.229 92.3276 105.6 89.5919 106.971C90.2759 106.971 90.9598 106.286 90.9598 106.286C92.3276 105.6 93.6954 104.229 95.0632 102.857C95.0632 102.857 95.0632 102.857 95.7471 102.171C95.7471 102.171 97.1149 100.8 95.7471 101.486C95.0632 102.171 94.3793 102.857 94.3793 102.857C93.6954 103.543 92.3276 104.229 91.6437 104.914C90.9598 104.914 90.9598 105.6 90.2759 105.6C88.908 106.286 88.2241 106.971 87.5402 106.971C86.8563 106.971 87.5402 106.286 86.8563 106.971C85.4885 106.971 83.4368 108.343 82.069 108.343C81.3851 108.343 81.385 108.343 80.7011 109.029C79.3333 109.714 78.6494 109.714 77.2816 109.714C75.9138 110.4 75.2299 110.4 73.1782 110.4C72.4942 110.4 71.8103 110.4 70.4425 110.4C69.0747 110.4 66.3391 110.4 64.9713 110.4C64.2874 110.4 64.2874 110.4 63.6034 110.4H64.2873C65.6552 110.4 67.7069 110.4 69.0747 110.4C71.1264 110.4 73.1782 109.714 75.2299 109.714C77.2816 109.714 79.3333 109.029 80.7011 108.343C83.4368 107.657 86.8563 106.286 88.908 104.914C89.592 104.914 90.2759 104.229 90.9598 103.543C92.3276 102.857 95.0632 100.8 96.431 100.114C96.431 100.114 97.7988 99.4286 98.4827 98.0571C98.4827 98.0571 97.1149 98.7429 96.431 99.4286C96.431 98.7429 97.1149 98.7429 98.4827 97.3714C97.7988 97.3714 97.7988 97.3714 97.1149 98.7429C97.1149 99.4286 97.7988 98.7429 96.431 99.4286C95.0632 100.114 95.7471 100.114 95.0632 100.8L96.431 99.4286C96.431 99.4286 96.431 99.4286 97.1149 98.7429C97.7988 98.7429 97.7988 98.0572 98.4827 97.3714C99.1667 96.6857 99.8506 96.6857 99.8506 96C101.218 95.3143 103.27 93.2571 104.638 91.2C103.27 93.2571 101.902 93.9429 99.8506 96C99.1667 96.6857 98.4827 96.6857 98.4827 97.3714C97.7988 98.0572 97.7988 98.0571 97.1149 98.7429C97.7988 98.0571 97.1149 98.7429 97.1149 98.0571C97.7988 97.3714 98.4828 96.6857 99.1667 96C101.902 93.2571 104.638 90.5143 106.69 87.0857C106.69 87.0857 107.374 86.4 107.374 85.7143C107.374 85.0286 108.057 84.3429 108.741 83.6572C108.741 83.6572 108.741 83.6571 108.741 82.9714C109.425 82.2857 109.425 81.6 110.109 80.9143C110.793 80.2286 110.793 80.2286 111.477 77.4857C112.161 74.7429 112.845 73.3714 112.845 74.0571V74.7429C112.845 73.3714 113.529 72 113.529 70.6286C113.529 69.9429 113.529 69.9429 114.213 69.2571V68.5714C117.632 68.5714 118.316 67.8857 118.316 66.5143ZM91.6437 63.7714C90.9598 65.1429 90.9598 66.5143 90.2759 67.2C88.908 70.6286 86.8563 73.3714 85.4885 76.1143C85.4885 76.1143 85.4885 76.1143 86.1724 75.4286L87.5402 74.0572C87.5402 74.7429 86.8563 74.7429 86.8563 75.4286C86.1724 76.1143 85.4885 76.8 84.8046 77.4857L84.1207 78.1714C84.1207 78.1714 84.1207 78.1714 83.4368 78.8571L82.7529 79.5429C82.7529 79.5429 83.4368 79.5429 83.4368 78.8571C84.1207 78.1714 84.8046 78.1714 85.4885 77.4857C86.1724 76.8 86.8563 76.1143 87.5402 75.4286C88.2241 74.7429 88.2241 74.0572 88.908 73.3714C88.908 72.6857 89.5919 72.6857 89.5919 72C89.5919 72 89.5919 72 89.5919 72.6857C89.5919 72.6857 89.5919 72.6857 90.2759 72C90.2759 72 90.2759 72 90.2759 71.3143C90.2759 71.3143 90.2759 70.6286 90.9598 70.6286C90.9598 70.6286 90.9598 69.9429 91.6437 69.9429C91.6437 69.9429 92.3276 69.2571 92.3276 68.5714C92.3276 67.8857 93.0115 67.8857 93.0115 67.2C93.0115 67.8857 93.0115 67.8857 93.0115 68.5714C92.3276 70.6286 90.9598 72 90.2759 74.0571C90.2759 74.0571 90.2759 74.0571 90.2759 74.7429C89.5919 75.4286 89.592 76.1143 88.908 76.8C88.908 76.8 88.908 76.8 88.908 77.4857C88.908 77.4857 88.908 77.4857 88.908 78.1714C86.8563 80.2286 84.8046 81.6 82.7529 83.6572C82.7529 83.6572 82.069 83.6571 82.069 84.3429C82.069 84.3429 82.069 84.3429 81.385 85.0286C81.385 85.0286 80.7011 85.0286 80.7011 85.7143C80.0172 86.4 79.3333 86.4 77.9655 87.0857C78.6494 87.0857 79.3333 86.4 79.3333 86.4C77.9655 87.0857 75.9138 87.7714 74.546 88.4571C74.546 88.4571 73.8621 88.4571 73.1782 88.4571C72.4942 88.4571 71.8103 88.4571 71.8103 88.4571C71.1264 88.4571 70.4425 88.4571 69.7586 88.4571C69.0747 88.4571 68.3908 88.4571 67.7069 88.4571C67.023 88.4571 66.3391 88.4571 65.6552 88.4571H64.9713H64.2873C64.9713 88.4571 65.6552 88.4572 66.3391 88.4572C67.023 88.4572 67.023 88.4572 67.023 88.4572C68.3908 88.4572 67.023 88.4571 68.3908 88.4571C68.3908 88.4571 68.3908 88.4571 69.0747 88.4571C69.7586 88.4571 70.4425 88.4571 70.4425 88.4571H71.8103C71.1264 88.4571 70.4425 88.4571 70.4425 88.4571C70.4425 88.4571 69.7586 88.4571 69.0747 88.4571H68.3908H67.7069C67.023 88.4571 66.3391 88.4571 65.6552 88.4571C64.9713 88.4571 64.9713 88.4571 64.2873 88.4571C63.6034 88.4571 62.9195 88.4571 62.2356 88.4571C62.2356 88.4571 64.2874 88.4571 63.6034 89.1429C64.2874 89.1429 64.2874 89.1429 64.9713 89.1429C64.9713 89.1429 64.9713 89.1429 65.6552 89.1429C65.6552 89.1429 65.6552 89.1429 66.3391 89.1429C67.023 89.1429 67.7069 89.1429 69.0747 89.1429C68.3908 89.1429 68.3908 89.1429 68.3908 89.1429H69.0747C68.3908 89.1429 68.3908 89.1429 68.3908 89.1429C69.0747 89.1429 69.0747 89.1429 69.7586 89.1429C70.4425 89.1429 70.4425 89.1429 70.4425 89.1429C69.7586 89.1429 69.7586 89.1429 69.0747 89.1429C69.7586 89.1429 69.7586 89.1429 69.7586 89.1429H70.4425C71.8103 89.1429 72.4943 89.1429 73.8621 88.4571C74.546 88.4571 75.2299 88.4571 75.9138 87.7714C76.5977 87.7714 77.2816 87.0857 77.9655 87.0857H78.6494C78.6494 87.0857 78.6494 87.0857 79.3333 87.0857C79.3333 87.0857 78.6494 87.0857 78.6494 87.7714H77.2816C76.5977 87.7714 76.5977 87.7714 75.2299 88.4571H74.546C74.546 88.4571 74.546 88.4571 73.8621 88.4571H73.1782C71.8103 88.4571 70.4425 88.4571 69.0747 88.4571C68.3908 88.4571 67.7069 88.4572 67.023 88.4572C67.023 88.4572 66.3391 88.4571 65.6552 88.4571C65.6552 88.4571 65.6552 88.4571 64.9713 88.4571H64.2873C64.2873 88.4571 64.9713 88.4571 65.6552 88.4571C66.3391 88.4571 66.3391 88.4572 67.023 88.4572C67.023 88.4572 67.023 88.4571 67.7069 88.4571C67.023 88.4571 65.6552 88.4571 64.9713 88.4571H64.2873C64.2873 88.4571 64.2874 88.4571 63.6034 88.4571C62.9195 88.4571 62.2356 88.4571 62.2356 88.4571C62.2356 88.4571 61.5517 88.4571 60.8678 88.4571C60.1839 88.4571 61.5517 88.4571 61.5517 88.4571C62.2356 88.4571 62.9195 88.4571 63.6034 88.4571C63.6034 88.4571 63.6034 88.4571 64.2873 88.4571C65.6552 88.4571 65.6552 88.4571 64.2873 89.1429C63.6034 89.1429 63.6034 89.1429 63.6034 89.1429C62.9195 89.1429 61.5517 89.1429 60.8678 88.4571H61.5517C60.8678 88.4571 58.8161 87.7714 58.1322 87.7714C57.4483 87.7714 57.4483 87.0858 56.7644 87.0858L56.0805 87.0857C56.0805 87.0857 56.0805 87.0857 55.3965 87.0857C55.3965 87.0857 56.0805 87.0857 56.7644 87.7714C57.4483 87.7714 57.4483 87.7714 57.4483 87.7714C58.1322 87.7714 58.1322 88.4571 58.8161 88.4571H59.5C60.1839 88.4571 60.1839 88.4571 60.8678 88.4571C60.8678 88.4571 62.2356 88.4571 62.9195 89.1429C63.6034 89.1429 64.2874 89.1429 64.9713 89.1429C64.9713 89.1429 65.6552 89.1429 66.3391 89.1429C66.3391 89.1429 67.023 89.1429 67.7069 89.1429C68.3908 89.1429 68.3908 89.1429 69.0747 89.1429H69.7586C68.3908 89.1429 67.7069 89.1429 66.3391 89.1429C64.2873 89.1429 62.2356 88.4571 60.1839 88.4571H59.5C58.8161 88.4571 57.4483 87.7714 56.7644 87.7714C56.0805 87.0857 54.7126 87.0857 54.0287 86.4C54.0287 86.4 53.3448 86.4 53.3448 85.7143C53.3448 85.7143 53.3448 85.7143 54.0287 85.7143C54.0287 85.7143 54.0287 85.7143 53.3448 85.7143C53.3448 85.7143 53.3448 85.7143 52.6609 85.7143C53.3448 86.4 53.3448 86.4 54.0287 86.4C54.0287 86.4 54.7126 86.4 54.7126 87.0857C55.3966 87.7714 56.0805 87.7714 56.7644 88.4571L56.0805 88.4572C55.3965 88.4572 54.7126 87.7714 54.7126 87.7714C54.0287 87.7714 54.0287 87.7714 53.3448 87.7714C52.6609 87.7714 51.977 87.0857 51.2931 87.0857C51.2931 87.0857 51.2931 87.0857 51.2931 87.7714C50.6092 87.7714 49.9253 87.0857 50.6092 87.7714C50.6092 87.7714 50.6092 87.7714 49.9253 87.7714C50.6092 87.7714 50.6092 88.4571 51.2931 88.4571H50.6092C50.6092 88.4571 49.9253 87.7715 49.2414 87.7715C49.2414 87.7715 48.5575 87.7714 48.5575 87.0857C48.5575 87.0857 48.5575 87.0858 47.8736 87.0858H47.1897C47.1897 87.0858 47.1897 87.0858 47.8736 87.0858C48.5575 87.7715 49.2414 88.4571 50.6092 88.4571C47.8736 89.8286 48.5575 90.5143 49.9253 91.2C50.6092 91.2 50.6092 91.8857 51.2931 91.8857C51.2931 91.8857 51.977 92.5714 52.6609 92.5714C51.977 92.5714 51.2931 92.5714 50.6092 91.8857C49.9253 91.8857 48.5575 91.2 47.8736 90.5143C47.1897 89.8286 46.5057 89.1429 45.1379 88.4572C44.454 88.4572 43.7701 87.7714 43.0862 87.7714L43.7701 88.4571C43.7701 88.4571 44.454 88.4571 44.454 89.1429H43.7701H43.0862C43.0862 89.1429 43.0862 89.1429 43.7701 89.1429C43.7701 89.1429 43.7701 89.1429 43.0862 88.4571H42.4023L41.7184 87.7714C41.7184 87.7714 41.7184 87.7714 41.7184 88.4571C41.7184 88.4571 42.4023 89.1429 43.0862 89.8286C43.0862 89.8286 43.0862 89.8286 43.7701 90.5143C43.7701 90.5143 43.7701 90.5143 44.454 91.2L43.7701 90.5143C43.7701 90.5143 43.7701 90.5143 44.454 91.2C44.454 91.2 45.1379 91.2 45.1379 91.8857C45.1379 91.8857 45.8218 92.5714 47.1897 92.5714C47.1897 92.5714 47.8736 93.2571 48.5575 93.2571C49.2414 93.9429 50.6092 93.9429 51.2931 94.6286C51.2931 94.6286 51.977 94.6286 52.6609 95.3143C51.977 95.3143 51.977 95.3143 51.2931 94.6286C51.2931 94.6286 50.6092 94.6286 50.6092 93.9429C51.977 93.9429 51.977 94.6286 52.6609 94.6286H53.3448C54.0287 94.6286 54.0287 94.6286 54.0287 94.6286C54.7126 94.6286 55.3965 94.6286 55.3965 95.3143C55.3965 95.3143 55.3966 95.3143 54.7126 95.3143C54.7126 95.3143 54.7126 95.3143 54.0287 95.3143C53.3448 95.3143 52.6609 95.3143 52.6609 94.6286H51.977C51.977 94.6286 51.977 94.6286 51.2931 94.6286H50.6092C49.9253 94.6286 49.2414 93.9429 47.8736 93.9429C47.1897 93.9429 46.5057 93.9429 46.5057 93.2571C46.5057 93.2571 45.8218 93.2571 45.8218 92.5714C45.8218 92.5714 45.8218 92.5714 45.1379 92.5714C45.1379 92.5714 45.1379 92.5714 45.8218 93.2571C47.1897 93.9429 48.5575 94.6286 49.9253 95.3143C50.6092 95.3143 51.977 96 51.977 96C49.9253 95.3143 48.5575 94.6286 46.5057 93.9429C45.1379 93.2571 43.0862 91.8857 41.7184 91.2L41.0345 90.5143C40.3506 89.8286 39.6667 89.1429 38.9828 88.4571C38.9828 88.4571 39.6667 89.1429 38.9828 89.1429C38.2988 88.4571 37.6149 88.4571 37.6149 87.7714C37.6149 87.7714 36.931 87.0857 36.2471 86.4C35.5632 85.7143 35.5632 85.7143 34.8793 85.0286C34.1954 84.3429 34.1954 83.6571 33.5115 82.9714C34.1954 83.6571 34.1954 83.6572 34.1954 83.6572C34.1954 83.6572 34.1954 84.3429 34.8793 84.3429C34.8793 84.3429 34.8793 83.6572 34.1954 83.6572C34.1954 82.9714 33.5115 82.9714 33.5115 82.2857C33.5115 82.2857 33.5115 81.6 32.8276 81.6V82.2857C32.1437 81.6 31.4598 80.2286 31.4598 79.5429C31.4598 78.8571 30.7759 78.8571 30.7759 78.1714C30.7759 78.1714 30.7759 78.1715 30.7759 77.4858C30.7759 76.8 30.092 76.1143 30.092 75.4286V74.7429C30.092 74.7429 30.092 74.7429 30.092 75.4286C30.092 75.4286 30.092 75.4286 30.092 74.7429C30.092 74.7429 30.092 74.7429 30.092 74.0571C30.092 73.3714 30.092 72 29.408 71.3143C29.408 71.3143 29.408 70.6286 29.408 69.9429C29.408 69.9429 29.408 70.6286 29.408 71.3143C29.408 72 29.408 72.6857 29.408 73.3714V75.4286C29.408 76.1143 30.092 76.8 29.408 76.8C29.408 76.8 29.408 76.8 29.408 77.4857C29.408 78.1714 29.408 78.1714 30.092 78.1714V78.8571C30.092 78.8571 30.092 78.8571 30.092 79.5429V78.8571C34.1954 80.9143 34.1954 82.2857 35.5632 83.6572L34.8793 82.9715C34.1954 82.2858 34.1954 81.6 33.5115 80.9143C33.5115 81.6 34.1954 81.6 34.1954 81.6C34.8793 81.6 34.8793 82.2857 35.5632 82.9714C35.5632 82.9714 35.5632 83.6572 36.2471 83.6572C36.2471 84.3429 36.931 84.3429 37.6149 85.0286C37.6149 85.7143 37.6149 85.0286 37.6149 85.7143C37.6149 86.4 38.9828 87.0857 38.9828 87.7714L39.6667 88.4571C40.3506 89.1429 40.3506 89.1429 41.0345 89.8286C40.3506 89.1429 40.3506 89.8286 41.0345 90.5143C41.7184 90.5143 41.7184 91.2 42.4023 91.2C43.0862 91.8857 44.454 92.5714 45.1379 93.2571C45.1379 93.2571 45.8218 93.2571 45.8218 93.9429H45.1379C44.454 93.2571 43.0862 93.2571 42.4023 92.5714C41.7184 91.2 41.0345 90.5143 39.6667 89.8286C38.9828 89.1429 37.6149 88.4571 36.931 87.7714C35.5632 86.4 34.8793 85.0286 34.1954 83.6572C34.1954 82.9714 33.5115 82.9714 33.5115 82.2857C32.8276 81.6 32.1437 80.2286 32.1437 78.8572C32.1437 78.8572 32.1437 78.1714 31.4598 77.4857C31.4598 77.4857 31.4598 78.1714 31.4598 78.8571C31.4598 78.8571 30.7759 78.8572 30.7759 77.4858C30.7759 77.4858 30.7759 78.1714 30.7759 78.8571C30.7759 78.8571 30.7759 78.8571 31.4598 79.5429C32.1437 80.2286 31.4598 80.2286 32.1437 80.2286L31.4598 79.5429L31.4598 78.8571C31.4598 78.1714 31.4598 78.1715 30.7759 77.4858C30.7759 76.8 30.092 75.4286 30.092 74.0571C30.092 75.4286 30.092 76.1143 30.7759 77.4858C30.7759 78.1715 30.7759 78.1714 30.7759 78.8571V79.5429C30.092 78.8571 30.092 78.8571 30.092 78.1714C29.408 76.1143 29.4081 74.0572 29.4081 72.6858C29.4081 72.6858 29.408 72.6857 29.408 72C29.408 72 29.4081 71.3143 29.4081 70.6286C29.4081 69.9429 29.408 69.9429 29.408 69.2571C29.408 69.2571 29.408 68.5714 29.408 67.8857C29.408 66.5143 29.408 65.8286 30.092 66.5143C30.092 65.8286 30.092 65.8286 30.092 65.1429V64.4571C30.092 63.7714 30.092 63.7714 30.7759 63.0857C30.7759 63.0857 30.7759 63.0857 30.7759 62.4C30.7759 62.4 30.7759 62.4 30.7759 63.0857V64.4571C30.7759 65.1429 30.7759 65.1429 30.7759 65.8286V66.5143V67.8857C30.7759 68.5714 30.7759 68.5714 30.7759 69.9429V70.6286C30.7759 69.2571 30.7759 67.8857 31.4598 66.5143C31.4598 66.5143 31.4598 66.5143 31.4598 65.8286C31.4598 65.8286 31.4598 65.1429 31.4598 64.4571C31.4598 64.4571 31.4598 64.4571 31.4598 65.1429C31.4598 65.1429 31.4598 65.1429 31.4598 65.8286C31.4598 66.5143 31.4598 67.2 31.4598 67.2C31.4598 67.8857 31.4598 68.5714 31.4598 69.2571C31.4598 69.9429 31.4598 68.5714 30.7759 68.5714L30.7759 67.8857C30.7759 67.2 30.7759 66.5143 31.4598 65.8286C31.4598 65.8286 31.4598 66.5143 31.4598 67.2C31.4598 66.5143 31.4598 66.5143 31.4598 65.8286C31.4598 65.1429 31.4598 65.1429 31.4598 65.1429C31.4598 65.8286 31.4598 66.5143 31.4598 67.2V67.8857C31.4598 67.2 31.4598 67.2 31.4598 67.2C31.4598 66.5143 31.4598 65.8286 31.4598 64.4571V65.1429C31.4598 65.1429 31.4598 67.2 30.7759 66.5143C30.7759 66.5143 30.7759 66.5143 30.7759 65.8286C30.7759 65.8286 30.7759 64.4572 31.4598 63.7715C31.4598 63.7715 31.4598 64.4571 31.4598 65.1429C31.4598 65.8286 31.4598 66.5143 30.7759 67.8857C30.7759 67.2 30.7759 65.8286 30.7759 65.1429C30.7759 65.1429 30.7759 65.1429 30.7759 64.4571C30.7759 63.7714 30.7759 63.7714 30.7759 64.4571C25.9885 65.1429 25.3046 66.5143 25.3046 68.5714C25.3046 68.5714 25.3046 68.5714 25.3046 67.8857C25.3046 66.5143 25.9885 64.4571 25.9885 63.0857C25.9885 62.4 25.9885 61.7143 26.6724 61.7143H27.3563C27.3563 60.3429 27.3563 58.9714 27.3563 58.2857C28.0402 56.9143 28.7241 55.5429 28.7241 54.1714C30.092 50.7429 32.1437 48 34.1954 45.9429L34.8793 45.2571C34.1954 45.2571 34.1954 45.2571 34.1954 45.2571C34.1954 45.2571 34.1954 45.2571 33.5115 45.9429L32.1437 47.3143C32.1437 46.6286 32.8276 46.6286 32.8276 45.9429C34.1954 44.5714 34.8793 43.8857 35.5632 43.2L36.2471 42.5143C36.2471 42.5143 36.2471 42.5143 36.931 41.8286L37.6149 41.1429C37.6149 41.1429 36.931 41.1429 36.931 41.8286C36.2471 42.5143 35.5632 42.5144 34.8793 43.2001C34.1954 44.5715 33.5115 44.5714 32.8276 45.9429C32.8276 46.6286 32.1437 46.6286 31.4598 47.3143C31.4598 48 30.7759 48 30.7759 48.6857C30.7759 48.6857 30.7759 48.6857 30.7759 48C30.7759 48 30.7759 48 30.092 48.6857C30.092 48.6857 30.092 48.6857 30.092 49.3714C30.092 49.3714 30.092 50.0571 29.408 50.0571C29.408 50.0571 29.408 50.7429 28.7241 50.7429C28.7241 50.7429 28.0402 51.4286 28.0402 52.1143C28.0402 52.8 27.3563 52.8 27.3563 53.4857C27.3563 52.8 27.3563 52.8 27.3563 52.1143C28.0402 50.0571 29.408 48.6857 30.092 46.6286C30.092 46.6286 30.092 46.6286 30.092 45.9429C30.7759 45.2571 30.7759 44.5714 31.4598 43.8857C31.4598 43.8857 31.4598 43.8857 31.4598 43.2C31.4598 43.2 31.4598 43.2 31.4598 42.5143C33.5115 40.4571 35.5632 39.0857 37.6149 37.0286C37.6149 37.0286 38.2988 37.0286 38.2988 36.3429C38.2988 36.3429 38.2988 36.3429 38.9828 35.6571C38.9828 35.6571 39.6667 35.6571 39.6667 34.9714C40.3506 34.2857 41.0345 34.2857 42.4023 33.6C41.7184 33.6 41.7184 34.2857 41.0345 34.2857C44.454 36.3429 45.8218 35.6571 47.8736 34.9714C47.8736 34.9714 48.5575 34.9714 49.2414 34.9714C49.9253 34.9714 50.6092 34.9714 50.6092 34.9714C51.2931 34.9714 51.977 34.9714 52.6609 34.9714C53.3448 34.9714 54.0287 34.9714 54.7126 34.9714C55.3965 34.9714 56.0805 34.9714 56.7644 34.9714H57.4483H58.1322C57.4483 34.9714 56.7644 34.9714 56.0805 34.9714C55.3965 34.9714 55.3965 34.9714 55.3965 34.9714C54.0287 34.9714 55.3965 34.9714 54.0287 34.9714C54.0287 34.9714 54.0287 34.9714 53.3448 34.9714C52.6609 34.9714 51.977 34.9714 51.977 34.9714L50.6092 34.9714C51.2931 34.9714 51.977 34.9714 51.977 34.9714C51.977 34.9714 52.6609 34.9714 53.3448 34.9714H54.0287H54.7126C55.3965 34.9714 56.0805 34.9714 56.7644 34.9714C57.4483 34.9714 57.4483 34.9714 58.1322 34.9714C58.8161 34.9714 59.5 34.9714 60.1839 34.9714C60.1839 34.9714 58.1322 34.9714 58.8161 34.2857C58.1322 34.2857 58.1322 34.2857 57.4483 34.2857C57.4483 34.2857 57.4483 34.2857 56.7644 34.2857C56.7644 34.2857 56.7644 34.2857 56.0805 34.2857C55.3965 34.2857 54.7126 34.2857 53.3448 34.2857C54.0287 34.2857 54.0287 34.2857 54.0287 34.2857H53.3448C54.0287 34.2857 54.0287 34.2857 54.0287 34.2857C53.3448 34.2857 53.3448 34.2857 52.6609 34.2857C51.977 34.2857 51.977 34.2857 51.977 34.2857C52.6609 34.2857 52.6609 34.2857 53.3448 34.2857C52.6609 34.2857 52.6609 34.2857 52.6609 34.2857H51.977C50.6092 34.2857 49.9253 34.2857 48.5575 34.9714C47.8736 34.9714 47.1897 34.9714 46.5057 35.6571C45.8218 35.6571 45.1379 36.3429 44.454 36.3429H43.7701C43.7701 36.3429 43.7701 36.3429 43.0862 36.3429C43.0862 36.3429 43.7701 36.3429 43.7701 35.6571H45.1379C45.8218 35.6571 45.8218 35.6571 47.1897 34.9714H47.8736C47.8736 34.9714 47.8736 34.9714 48.5575 34.9714H49.2414C50.6092 34.9714 51.977 34.9714 53.3448 34.9714C54.0287 34.9714 54.7126 34.9714 55.3965 34.9714C55.3965 34.9714 56.0805 34.9714 56.7644 34.9714C56.7644 34.9714 56.7644 34.9714 57.4483 34.9714H58.1322C58.1322 34.9714 57.4483 34.9714 56.7644 34.9714C56.0805 34.9714 56.0805 34.9714 55.3965 34.9714C55.3965 34.9714 55.3965 34.9714 54.7126 34.9714C55.3965 34.9714 56.7644 34.9714 57.4483 34.9714H58.1322C58.1322 34.9714 58.1322 34.9714 58.8161 34.9714C59.5 34.9714 60.1839 34.9714 60.1839 34.9714C60.1839 34.9714 60.8678 34.9714 61.5517 34.9714C62.2356 34.9714 60.8678 34.9714 60.8678 34.9714C60.1839 34.9714 59.5 34.9714 58.8161 34.9714C58.8161 34.9714 58.8161 34.9714 58.1322 34.9714C56.7644 34.9714 56.7644 34.9714 58.1322 34.2857C58.8161 34.2857 58.8161 34.2857 58.8161 34.2857C59.5 34.2857 60.8678 34.2857 61.5517 34.9714H60.8678C61.5517 34.9714 63.6034 35.6571 64.2873 35.6571C64.9713 35.6571 64.9713 36.3429 65.6552 36.3429H66.3391C66.3391 36.3429 66.3391 36.3429 67.023 36.3429C67.023 36.3429 66.3391 36.3429 65.6552 35.6571C64.9713 35.6571 64.9713 35.6571 64.9713 35.6571C64.2874 35.6571 64.2874 34.9714 63.6034 34.9714H62.9195C62.2356 34.9714 62.2356 34.9714 61.5517 34.9714C61.5517 34.9714 60.1839 34.9714 59.5 34.2857C58.8161 34.2857 58.1322 34.2857 57.4483 34.2857C57.4483 34.2857 56.7644 34.2857 56.0805 34.2857C56.0805 34.2857 55.3966 34.2857 54.7126 34.2857C54.0287 34.2857 54.0287 34.2857 53.3448 34.2857C52.6609 34.2857 52.6609 34.2857 52.6609 34.2857C54.0287 34.2857 54.7126 34.2857 56.0805 34.2857C58.1322 34.2857 60.1839 34.9714 62.2356 34.9714H62.9195C63.6034 34.9714 64.9713 35.6571 65.6552 35.6571C66.3391 36.3429 67.7069 36.3429 68.3908 37.0286C68.3908 37.0286 69.0747 37.0286 69.0747 37.7143C69.0747 37.7143 69.0747 37.7143 68.3908 37.7143C68.3908 37.7143 68.3908 37.7143 69.0747 37.7143C69.0747 37.7143 69.0747 37.7143 69.7586 37.7143C69.0747 37.0286 69.0747 37.0286 68.3908 37.0286C68.3908 37.0286 67.7069 37.0286 67.7069 36.3429C67.023 35.6571 66.3391 35.6571 65.6552 34.9714H66.3391C67.023 34.9714 67.7069 35.6571 67.7069 35.6571C68.3908 35.6571 68.3908 35.6571 69.0747 35.6571C69.7586 35.6571 70.4425 36.3429 71.1264 36.3429C71.1264 36.3429 71.1264 36.3429 71.1264 35.6571C71.8103 35.6571 72.4942 36.3429 71.8103 35.6571C71.8103 35.6571 71.8103 35.6571 72.4942 35.6571C71.8103 35.6571 71.8103 34.9714 71.1264 34.9714L71.8104 34.9714C71.8104 34.9714 72.4942 35.6571 73.1782 35.6571C73.1782 35.6571 73.8621 35.6571 73.8621 36.3429C73.8621 36.3429 73.8621 36.3429 74.546 36.3429H75.2299C75.2299 36.3429 75.2299 36.3429 74.546 35.6572C73.8621 34.9715 73.1782 34.2857 71.8103 34.2857C71.1264 33.6 70.4425 32.9143 69.0747 32.9143C68.3908 32.9143 68.3908 32.2286 67.7069 32.2286C67.7069 32.2286 67.023 31.5429 66.3391 31.5429C67.023 31.5429 67.7069 31.5429 68.3908 32.2286C69.0747 32.2286 70.4425 32.9143 71.1264 33.6C71.8103 34.2857 73.1782 34.9714 73.8621 35.6571C74.546 35.6571 75.2299 36.3429 75.9138 36.3429L75.2299 35.6571C75.2299 35.6571 74.546 35.6571 74.546 34.9714H75.2299H75.9138C75.9138 34.9714 75.9138 34.9714 75.2299 34.9714C75.2299 34.9714 75.2299 34.9714 75.9138 35.6571H76.5977L77.2816 36.3429C77.2816 36.3429 77.2816 36.3429 77.2816 35.6572C77.2816 35.6572 76.5977 34.9714 75.9138 34.2857C75.9138 34.2857 75.9138 34.2857 75.2299 33.6C75.2299 33.6 75.2299 33.6 74.546 32.9143L75.2299 33.6C75.2299 33.6 75.2299 33.6 74.546 32.9143C74.546 32.9143 73.8621 32.9143 73.8621 32.2286C73.8621 32.2286 73.1782 31.5429 71.8103 31.5429C71.8103 31.5429 71.1264 30.8571 70.4425 30.8571C70.4425 28.1143 69.0747 28.1143 68.3908 27.4286C68.3908 27.4286 67.7069 27.4286 67.023 26.7429C67.7069 26.7429 67.7069 26.7429 68.3908 27.4286C68.3908 27.4286 69.0747 27.4286 69.0747 28.1143C67.7069 28.1143 67.7069 27.4286 67.023 27.4286H66.3391C65.6552 27.4286 65.6552 27.4286 65.6552 27.4286C64.9713 27.4286 64.2873 27.4286 64.2873 26.7429C64.2873 26.7429 64.2874 26.7429 64.9713 26.7429C64.9713 26.7429 64.9713 26.7429 65.6552 26.7429C66.3391 26.7429 67.023 26.7429 67.023 27.4286H68.3908C69.0747 27.4286 69.7586 28.1143 71.1264 28.1143C71.8103 28.1143 72.4942 28.1143 72.4942 28.8C72.4942 28.8 73.1782 28.8 73.1782 29.4857C73.1782 29.4857 73.1782 29.4857 73.8621 29.4857C73.8621 29.4857 73.8621 29.4857 73.1782 28.8C71.1264 28.1143 69.0747 27.4286 67.7069 26.7429C67.023 26.7429 65.6552 26.0571 65.6552 26.0571C67.7069 26.7429 69.0747 27.4286 71.1264 28.1143C72.4942 28.8 74.546 30.1714 75.9138 30.8571L76.5977 31.5429C77.2816 32.2286 77.9655 32.9143 78.6494 33.6C78.6494 33.6 77.9655 32.9143 78.6494 32.9143C79.3333 33.6 80.0172 33.6 80.0172 34.2857C80.0172 34.2857 80.7011 34.9714 81.385 35.6571C82.069 36.3429 82.069 36.3429 82.7529 37.0286C83.4368 37.7143 83.4368 38.4 84.1207 39.0857C83.4368 38.4 83.4368 38.4 83.4368 38.4C83.4368 38.4 83.4368 37.7143 82.7529 37.7143C82.7529 37.7143 82.7529 37.7143 83.4368 38.4C83.4368 39.0857 84.1207 39.0857 84.1207 39.7714C84.1207 39.7714 84.1207 40.4571 84.8046 40.4571V39.7714C85.4885 40.4571 86.1724 41.8286 86.1724 42.5143C86.1724 43.2 86.8563 43.2 86.8563 43.8857C86.8563 43.8857 86.8563 43.8857 86.8563 44.5714C86.8563 45.2571 87.5402 45.9429 87.5402 46.6286V47.3143C87.5402 47.3143 87.5402 47.3143 87.5402 46.6286C87.5402 46.6286 87.5402 46.6286 87.5402 47.3143C87.5402 47.3143 87.5402 47.3143 87.5402 48C87.5402 48.6857 87.5402 50.0571 88.2241 50.7429C88.2241 50.7429 88.2241 51.4286 88.2241 52.1143C88.2241 52.1143 88.2241 51.4286 88.2241 50.7429C88.2241 50.0571 88.2241 49.3714 88.2241 48.6857L88.2241 48V47.3144L88.2241 46.6286C88.2241 45.9429 87.5402 45.2571 88.2241 45.2571C88.2241 45.2571 88.2241 45.2572 88.2241 44.5715C88.2241 43.8857 88.2241 43.8857 87.5402 43.8857L87.5402 43.2C87.5402 43.2 87.5402 43.2 87.5402 42.5143L87.5402 43.2C87.5402 43.2 87.5402 43.2 87.5402 42.5143C86.8563 41.1429 86.1724 39.7714 85.4885 38.4L86.1724 39.0857C86.8563 39.7714 86.8563 40.4571 87.5402 41.1429C87.5402 40.4571 86.8563 40.4571 86.8563 40.4571C86.1724 40.4571 86.1724 39.7714 85.4885 39.0857C85.4885 39.0857 85.4885 38.4 84.8046 38.4C84.8046 37.7143 84.1207 37.7143 83.4368 37.0286C83.4368 36.3429 83.4368 37.0286 83.4368 36.3429L81.385 34.2857C80.7011 33.6 80.7011 33.6 80.0172 32.9143C79.3333 32.2286 79.3333 32.2286 77.9655 31.5429C77.2816 31.5429 77.2816 30.8571 76.5977 30.8571C75.9138 29.4857 75.2299 28.8 73.8621 28.1143C73.8621 28.1143 73.1782 28.1143 73.1782 27.4286H73.8621C74.546 28.1143 75.2299 28.8 76.5977 29.4857C77.9655 30.1714 78.6494 30.8571 79.3333 31.5429C80.0172 32.2286 81.3851 32.9143 82.069 33.6C83.4368 34.9714 84.1207 36.3429 85.4885 37.7143C85.4885 38.4 86.1724 38.4 86.1724 39.0857C86.8563 39.7714 87.5402 41.1429 87.5402 42.5143C87.5402 42.5143 87.5402 43.2 88.2241 43.8857C88.2241 43.8857 88.2241 43.2 88.2241 42.5143C88.2241 42.5143 88.908 42.5143 88.908 43.8857C88.908 43.8857 88.908 43.2 88.908 42.5143C88.908 42.5143 88.908 42.5143 88.2241 41.8286C87.5402 41.1429 88.2241 41.1429 87.5402 41.1429L88.2241 41.8286L88.2241 42.5143C88.2241 43.2 88.2241 43.2 88.908 43.8857C88.908 44.5714 89.5919 45.9429 89.5919 47.3143C89.5919 45.9429 89.592 45.2571 88.908 43.8857C88.908 43.2 88.908 43.2 88.908 42.5143V41.8286C89.592 42.5143 89.5919 42.5143 89.5919 43.2C90.2759 45.2571 90.2759 47.3143 90.2759 48.6857C90.2759 48.6857 90.2759 48.6857 90.2759 49.3714C90.2759 49.3714 90.2759 50.0571 90.2759 50.7429C90.2759 51.4286 90.2759 51.4286 90.2759 52.1143C90.2759 52.1143 90.2759 52.8 90.2759 53.4857C90.2759 54.8571 90.2759 55.5429 89.5919 54.8571C89.5919 55.5429 89.5919 55.5429 89.5919 56.2286V56.9143C89.5919 57.6 89.592 57.6 88.908 58.2857C88.908 58.2857 88.908 58.2857 88.908 58.9714C88.908 58.9714 88.908 58.9714 88.908 58.2857V57.6V56.9143C88.908 56.2286 88.908 56.2286 88.908 55.5429V54.1714V53.4857C88.908 52.8 88.908 52.8 88.908 51.4286V50.7429C88.908 52.1143 88.908 53.4857 88.2241 54.8571C88.2241 54.8571 88.2241 54.8571 88.2241 55.5429C88.2241 55.5429 88.2241 56.2286 88.2241 56.9143C88.2241 56.9143 88.2241 56.9143 88.2241 56.2286C88.2241 56.2286 88.2241 56.2286 88.2241 55.5429C88.2241 54.8571 88.2241 54.1714 88.2241 54.1714C88.2241 53.4857 88.2241 52.8 88.2241 52.1143C88.2241 51.4286 88.2241 52.8 88.908 52.8V53.4857C88.908 54.1714 88.908 54.8571 88.908 55.5429C88.908 55.5429 88.908 54.8571 88.908 54.1714C88.908 54.8571 88.908 54.8571 88.908 55.5429C88.908 56.2286 88.908 56.2286 88.908 56.2286C88.908 55.5429 88.908 54.8571 88.908 54.1714V53.4857C88.908 54.1714 88.908 54.1714 88.908 54.1714C88.908 54.8571 88.908 55.5429 88.908 56.9143V56.2286C88.908 56.2286 88.908 54.1714 89.5919 54.8571C89.5919 54.8571 89.5919 54.8571 89.5919 55.5429C89.5919 55.5429 89.592 56.9143 88.908 57.6C88.908 57.6 88.908 56.9143 88.908 56.2286C88.908 55.5429 88.908 54.8571 89.5919 53.4857C89.5919 54.1714 89.5919 55.5429 89.5919 56.2286C89.5919 56.2286 89.5919 56.2286 89.5919 56.9143C89.5919 57.6 89.5919 57.6 89.5919 56.9143C90.2759 55.5429 90.2759 54.1714 90.9598 52.1143C90.9598 52.1143 90.9598 52.1143 90.9598 52.8C90.9598 54.1714 90.2759 56.2286 90.2759 57.6C90.2759 58.2857 90.2759 58.9714 89.5919 58.9714H88.908C91.6437 61.0286 91.6437 62.4 91.6437 63.7714Z" fill="black"/>
<path d="M59.5 104.914C83.6736 104.914 103.27 85.266 103.27 61.0286C103.27 36.7912 83.6736 17.1429 59.5 17.1429C35.3264 17.1429 15.7299 36.7912 15.7299 61.0286C15.7299 85.266 35.3264 104.914 59.5 104.914Z" fill="black"/>
</svg>
