<svg width="477" height="446" viewBox="0 0 477 446" fill="none" xmlns="http://www.w3.org/2000/svg">
<path d="M119.25 60.0325C103.436 60.0325 88.2706 66.3574 77.0888 77.6157C65.9069 88.8739 59.625 104.143 59.625 120.065V128.641C59.625 130.916 58.7276 133.097 57.1302 134.705C55.5328 136.314 53.3662 137.217 51.1071 137.217C48.8481 137.217 46.6815 136.314 45.0841 134.705C43.4867 133.097 42.5893 130.916 42.5893 128.641V120.065C42.5893 99.5944 50.666 79.9622 65.0427 65.4872C79.4194 51.0123 98.9183 42.8804 119.25 42.8804H127.768C130.027 42.8804 132.193 43.7839 133.791 45.3923C135.388 47.0006 136.286 49.1819 136.286 51.4565C136.286 53.731 135.388 55.9123 133.791 57.5207C132.193 59.129 130.027 60.0325 127.768 60.0325H119.25Z" fill="#EAECF1"/>
<path fill-rule="evenodd" clip-rule="evenodd" d="M198.858 253.071C200.331 252.051 202.333 250.593 204.693 248.698C210.93 243.656 216.651 237.999 221.771 231.811C230.167 221.749 236.72 210.264 241.124 197.893C245.086 203.455 249.96 208.298 255.536 212.215V257.282H294.326L301.072 253.071C302.546 252.051 304.547 250.593 306.907 248.698C313.144 243.656 318.866 237.999 323.985 231.811C336.404 216.812 349.232 193.759 349.232 162.945C349.237 149.818 344.968 137.052 337.079 126.6C329.19 116.149 318.116 108.589 305.553 105.078C292.99 101.568 279.63 102.3 267.52 107.163C255.409 112.026 245.216 120.751 238.5 132.003C233.919 124.336 227.693 117.798 220.279 112.866C212.865 107.933 204.449 104.732 195.648 103.496C186.847 102.259 177.882 103.019 169.41 105.72C160.938 108.421 153.173 112.995 146.683 119.106C140.192 125.217 135.141 132.712 131.897 141.042C128.654 149.372 127.301 158.327 127.938 167.251C128.574 176.175 131.183 184.844 135.575 192.622C139.967 200.4 146.03 207.091 153.321 212.206V257.282H192.112L198.858 253.071ZM229.982 162.945C229.98 155.215 227.902 147.629 223.969 140.99C220.036 134.351 214.393 128.906 207.638 125.232C200.883 121.557 193.267 119.789 185.596 120.115C177.925 120.442 170.484 122.85 164.061 127.085C157.637 131.32 152.471 137.224 149.107 144.173C145.744 151.123 144.309 158.858 144.954 166.561C145.599 174.264 148.301 181.648 152.773 187.932C157.244 194.216 163.32 199.166 170.357 202.258V240.13H187.393C187.393 240.13 229.982 214.402 229.982 162.945ZM332.196 162.945C332.194 155.215 330.117 147.629 326.183 140.99C322.25 134.351 316.607 128.906 309.852 125.232C303.097 121.557 295.481 119.789 287.81 120.115C280.139 120.442 272.698 122.85 266.275 127.085C259.852 131.32 254.685 137.224 251.322 144.173C247.958 151.123 246.523 158.858 247.169 166.561C247.814 174.264 250.515 181.648 254.987 187.932C259.459 194.216 265.535 199.166 272.571 202.258V240.13H289.607C289.607 240.13 332.196 214.402 332.196 162.945Z" fill="#EAECF1"/>
<path fill-rule="evenodd" clip-rule="evenodd" d="M110.732 0C49.5739 0 0 49.9128 0 111.489V248.706C0 310.282 49.5739 360.195 110.732 360.195V413.092C110.732 442.354 145.868 457.002 166.422 436.316L242.026 360.195H366.268C427.426 360.195 477 310.282 477 248.706V111.489C477 49.9128 427.426 0 366.268 0H110.732ZM17.0357 111.489C17.0357 59.3893 58.9862 17.1522 110.732 17.1522H366.268C418.014 17.1522 459.964 59.3893 459.964 111.489V248.706C459.964 300.806 418.014 343.043 366.268 343.043H238.5C236.241 343.044 234.075 343.947 232.478 345.556L154.378 424.19C144.557 434.078 127.768 427.071 127.768 413.092V351.619C127.768 349.345 126.87 347.163 125.273 345.555C123.676 343.947 121.509 343.043 119.25 343.043H110.732C58.9862 343.043 17.0357 300.806 17.0357 248.706V111.489Z" fill="#EAECF1"/>
</svg>
